<?xml version="1.0" encoding="utf-8"?>
<!-- Generator: Adobe Illustrator 19.2.1, SVG Export Plug-In . SVG Version: 6.00 Build 0)  -->
<svg version="1.1" id="Layer_1" xmlns="http://www.w3.org/2000/svg" xmlns:xlink="http://www.w3.org/1999/xlink" x="0px" y="0px"
	 viewBox="0 0 1400 980" style="enable-background:new 0 0 1400 980;" xml:space="preserve">
<style type="text/css">
	.st0{fill:#B9E5FB;}
	.st1{fill:#A9DFF4;}
	.st2{fill:#D9F1FD;}
	.st3{fill:#897E9E;}
	.st4{fill:#462C6B;}
	.st5{fill:#93D4E9;}
	.st6{fill:#A196BC;}
	.st7{fill:#79C6D8;}
	.st8{fill:#E4E5E6;}
	.st9{fill:#FFFFFF;}
	.st10{fill:#65AECD;}
	.st11{fill:#657585;}
	.st12{fill:#40B1E5;}
	.st13{fill:#99DAF1;}
	.st14{fill:#E48063;}
	.st15{fill:#32A4D5;}
	.st16{fill:#60C3AC;}
	.st17{fill:#F27581;}
	.st18{fill:#E26F61;}
	.st19{fill:#F0D49A;}
	.st20{fill:#575892;}
	.st21{fill:#FDC57A;}
	.st22{fill:#767885;}
</style>
<rect class="st0" width="1400" height="980"/>
<polygon class="st1" points="1049.7,572.3 1049.7,433 1035,433 1035,415 1001.7,415 1001.7,433 987,433 987,490 872.3,490 
	872.3,572.3 801.7,572.3 801.7,508.1 739,508.1 739,572.3 671,572.3 671,429 595,429 595,497.7 578.3,497.7 578.3,423.3 
	564.3,423.3 564.3,393.3 519.7,393.3 519.7,423.3 505.7,423.3 505.7,508 435,508 435,470 425,470 425,458 411,458 411,442.5 
	383,442.5 383,458 369,458 369,470 359,470 359,508 309,508 309,572.3 220.1,572.3 220.1,694.3 1217.1,694.3 1217.1,572.3 "/>
<g>
	<path class="st2" d="M548.1,442.5c0-5.3,4.3-9.7,9.7-9.7c0.2,0,0.4,0,0.6,0c-0.4-1.5-0.6-3-0.6-4.6c0-9.7,7.9-17.6,17.6-17.6
		c0.9,0,1.7,0.1,2.5,0.2c3.7-8.3,12-14.1,21.7-14.1c9.8,0,18.2,5.9,21.8,14.3c1.2-0.3,2.4-0.4,3.7-0.4c9.7,0,17.6,7.9,17.6,17.6
		c0,0.2,0,0.5,0,0.7c0.9-0.2,1.9-0.3,2.9-0.3c7.6,0,13.8,6.2,13.8,13.8H548.1z"/>
	<path class="st3" d="M646.4,445H619c-1.4,0-2.5-1.1-2.5-2.5s1.1-2.5,2.5-2.5h27.3c1.4,0,2.5,1.1,2.5,2.5S647.7,445,646.4,445z"/>
	<path class="st3" d="M675.1,445h-15.6c-1.4,0-2.5-1.1-2.5-2.5c0-6.3-5.1-11.3-11.3-11.3c-0.8,0-1.6,0.1-2.4,0.3
		c-0.8,0.2-1.5,0-2.1-0.5c-0.6-0.5-0.9-1.2-0.9-2c0-0.2,0-0.4,0-0.6c0-8.3-6.8-15.1-15.1-15.1c-1.1,0-2.1,0.1-3.2,0.3
		c-1.2,0.2-2.3-0.4-2.8-1.5c-3.4-7.8-11-12.8-19.5-12.8c-8.4,0-16,5-19.4,12.6c-0.5,1-1.5,1.6-2.6,1.5c-9.3-1.3-17.3,5.9-17.3,15
		c0,1.3,0.2,2.7,0.5,4c0.2,0.8,0,1.6-0.5,2.2c-0.5,0.6-1.3,1-2.1,0.9l-0.2,0c-0.1,0-0.2,0-0.3,0c-3.9,0-7.2,3.2-7.2,7.2
		c0,1.4-1.1,2.5-2.5,2.5h-11.4c-1.4,0-2.5-1.1-2.5-2.5s1.1-2.5,2.5-2.5h9.1c1-4.7,4.8-8.5,9.5-9.4c-0.1-0.8-0.1-1.6-0.1-2.3
		c0-11.4,9.6-20.7,21.2-20.1c4.5-8.5,13.4-14,23.2-14c9.8,0,18.8,5.5,23.3,14.1c0.8-0.1,1.5-0.1,2.3-0.1c10.4,0,19,7.9,20,18.1
		c8.3-0.3,15.4,5.8,16.6,13.8h13.3c1.4,0,2.5,1.1,2.5,2.5S676.5,445,675.1,445z"/>
	<path class="st3" d="M578.9,445h-21.1c-1.4,0-2.5-1.1-2.5-2.5s1.1-2.5,2.5-2.5h21.1c1.4,0,2.5,1.1,2.5,2.5S580.3,445,578.9,445z"/>
	<path class="st4" d="M690.3,445h-6.2c-1.4,0-2.5-1.1-2.5-2.5s1.1-2.5,2.5-2.5h6.2c1.4,0,2.5,1.1,2.5,2.5S691.7,445,690.3,445z"/>
</g>
<g>
	<path class="st5" d="M1153.5,643V495h-17.8v-14H1123v-20h-22.9v20h-12.7v14h-17.8v100h-65.3V479.7H945V595h-39V375h-22v-32h-22.1
		l-5.9-28h-18.7l-5.9,28h-22.1v32h-22v247.5H745V394h-18.1c-7.6-9.3-19.1-15.2-32-15.2s-24.4,5.9-32,15.2h-18.1v153H609v-60.7h-21.3
		V461l-75.3,18.7v6.6H491v86h-29.7V490H402v132.5h-58.3v-96.9h-59.3v56.7h-29.7v40.2H182v163.1h247h62h21.3h0.7h43.3h31.3H609h94.3
		h10h202v-13.5H945h59.3h24.7v13.5h212V643H1153.5z"/>
	<path class="st6" d="M1241,788.1h-212c-1.4,0-2.5-1.1-2.5-2.5v-11H917.8v11c0,1.4-1.1,2.5-2.5,2.5H182c-1.4,0-2.5-1.1-2.5-2.5
		V622.5c0-1.4,1.1-2.5,2.5-2.5h70.2v-37.7c0-1.4,1.1-2.5,2.5-2.5h27.2v-54.2c0-1.4,1.1-2.5,2.5-2.5h59.3c1.4,0,2.5,1.1,2.5,2.5V620
		h53.3V490c0-1.4,1.1-2.5,2.5-2.5h59.3c1.4,0,2.5,1.1,2.5,2.5v79.8h24.7v-83.5c0-1.4,1.1-2.5,2.5-2.5h18.8v-4.1
		c0-1.1,0.8-2.1,1.9-2.4l75.3-18.7c0.7-0.2,1.5,0,2.1,0.5c0.6,0.5,1,1.2,1,2v22.8H609c1.4,0,2.5,1.1,2.5,2.5v58.2h30.7V394
		c0-1.4,1.1-2.5,2.5-2.5h17c8.3-9.7,20.4-15.2,33.2-15.2c12.8,0,24.8,5.5,33.2,15.2h17c1.4,0,2.5,1.1,2.5,2.5v226h37.3V375
		c0-1.4,1.1-2.5,2.5-2.5h19.5V343c0-1.4,1.1-2.5,2.5-2.5h20.1l5.5-26c0.2-1.2,1.3-2,2.4-2H856c1.2,0,2.2,0.8,2.4,2l5.5,26H884
		c1.4,0,2.5,1.1,2.5,2.5v29.5H906c1.4,0,2.5,1.1,2.5,2.5v217.5h34V479.7c0-1.4,1.1-2.5,2.5-2.5h59.3c1.4,0,2.5,1.1,2.5,2.5v112.8
		h60.3V495c0-1.4,1.1-2.5,2.5-2.5h15.3V481c0-1.4,1.1-2.5,2.5-2.5h10.2V461c0-1.4,1.1-2.5,2.5-2.5h22.9c1.4,0,2.5,1.1,2.5,2.5v17.5
		h10.2c1.4,0,2.5,1.1,2.5,2.5v11.5h15.3c1.4,0,2.5,1.1,2.5,2.5v145.5h85c1.4,0,2.5,1.1,2.5,2.5v142.6
		C1243.5,787,1242.4,788.1,1241,788.1z M1031.5,783.1h207V645.5h-85c-1.4,0-2.5-1.1-2.5-2.5V497.5h-15.3c-1.4,0-2.5-1.1-2.5-2.5
		v-11.5H1123c-1.4,0-2.5-1.1-2.5-2.5v-17.5h-17.9V481c0,1.4-1.1,2.5-2.5,2.5H1090V495c0,1.4-1.1,2.5-2.5,2.5h-15.3V595
		c0,1.4-1.1,2.5-2.5,2.5h-65.3c-1.4,0-2.5-1.1-2.5-2.5V482.2h-54.3V595c0,1.4-1.1,2.5-2.5,2.5h-39c-1.4,0-2.5-1.1-2.5-2.5V377.5H884
		c-1.4,0-2.5-1.1-2.5-2.5v-29.5h-19.6c-1.2,0-2.2-0.8-2.4-2l-5.5-26h-14.6l-5.5,26c-0.2,1.2-1.3,2-2.4,2h-19.6V375
		c0,1.4-1.1,2.5-2.5,2.5h-19.5v245c0,1.4-1.1,2.5-2.5,2.5H745c-1.4,0-2.5-1.1-2.5-2.5v-226h-15.6c-0.8,0-1.5-0.3-1.9-0.9
		c-7.4-9.1-18.4-14.3-30.1-14.3c-11.7,0-22.7,5.2-30.1,14.3c-0.5,0.6-1.2,0.9-1.9,0.9h-15.6V547c0,1.4-1.1,2.5-2.5,2.5H609
		c-1.4,0-2.5-1.1-2.5-2.5v-58.2h-18.8c-1.4,0-2.5-1.1-2.5-2.5v-22.1l-70.3,17.5v4.6c0,1.4-1.1,2.5-2.5,2.5h-18.8v83.5
		c0,1.4-1.1,2.5-2.5,2.5h-29.7c-1.4,0-2.5-1.1-2.5-2.5v-79.8h-54.3v130c0,1.4-1.1,2.5-2.5,2.5h-58.3c-1.4,0-2.5-1.1-2.5-2.5v-94.4
		h-54.3v54.2c0,1.4-1.1,2.5-2.5,2.5h-27.2v37.7c0,1.4-1.1,2.5-2.5,2.5h-70.2v158.1h728.3v-11c0-1.4,1.1-2.5,2.5-2.5H1029
		c1.4,0,2.5,1.1,2.5,2.5V783.1z"/>
</g>
<g>
	<path class="st2" d="M1198,563.1c0-0.2,0-0.5,0-0.7c0-5.1-4.1-9.2-9.2-9.2c-0.4,0-0.7,0-1.1,0.1c0-0.2,0-0.5,0-0.7
		c0-7.4-6-13.4-13.4-13.4c-0.7,0-1.3,0.1-1.9,0.2c-0.8-5.6-5.6-9.9-11.4-9.9c-1.8,0-3.4,0.4-4.9,1.1c-4-3.7-9.4-6-15.3-6
		c-9.1,0-16.9,5.3-20.5,13c-0.7-0.1-1.4-0.2-2.2-0.2c-6.3,0-11.4,5.1-11.4,11.4c0,0.2,0,0.4,0,0.5c-0.6-0.1-1.2-0.1-1.9-0.1
		c-7.3,0-13.2,5.9-13.2,13.2c0,0.2,0,0.5,0,0.7H1198z"/>
	<path class="st3" d="M1124.8,565.6h-9.2c-1.4,0-2.5-1.1-2.5-2.5s1.1-2.5,2.5-2.5h9.2c1.4,0,2.5,1.1,2.5,2.5
		S1126.2,565.6,1124.8,565.6z"/>
	<path class="st3" d="M1198,565.6h-31c-1.4,0-2.5-1.1-2.5-2.5s1.1-2.5,2.5-2.5h28.3c-0.8-2.8-3.4-4.9-6.5-4.9c-0.3,0-0.5,0-0.8,0.1
		c-0.7,0.1-1.5-0.2-2-0.7s-0.8-1.2-0.8-2l0-0.2c0-0.1,0-0.2,0-0.3c0-6-4.9-10.9-10.9-10.9c-0.5,0-1,0-1.6,0.1
		c-0.7,0.1-1.3-0.1-1.9-0.5c-0.5-0.4-0.9-1-1-1.6c-0.6-4.4-4.5-7.7-8.9-7.7c-1.3,0-2.6,0.3-3.9,0.9c-0.9,0.4-2,0.3-2.8-0.4
		c-3.7-3.4-8.6-5.3-13.6-5.3c-7.8,0-14.9,4.5-18.2,11.6c-0.5,1-1.6,1.6-2.7,1.4c-0.6-0.1-1.1-0.2-1.7-0.2c-4.9,0-8.9,4-8.9,8.9
		c0,0.1,0,0.1,0,0.2l0,0.2c0,0.7-0.3,1.5-0.8,2c-0.6,0.5-1.3,0.7-2,0.6c-0.6-0.1-1.1-0.1-1.5-0.1c-5.3,0-9.7,3.9-10.6,8.9h11.6
		c1.4,0,2.5,1.1,2.5,2.5s-1.1,2.5-2.5,2.5h-14.2c-1.3,0-2.4-1-2.5-2.4l0-0.2c0-0.2,0-0.4,0-0.7c0-8.5,6.8-15.4,15.2-15.7
		c1-6.9,7.2-12.1,14.4-11.7c4.4-7.8,12.8-12.8,21.9-12.8c5.8,0,11.3,2,15.8,5.6c1.4-0.5,2.9-0.7,4.5-0.7c6.1,0,11.5,4,13.4,9.7
		c0,0,0,0,0,0c8.1,0,14.9,6.2,15.8,14.1c5.8,0.7,10.4,5.6,10.4,11.6c0,0.3,0,0.6,0,0.9C1200.4,564.6,1199.3,565.6,1198,565.6z"/>
</g>
<polygon class="st7" points="1269,702.6 1269,530 1183.7,530 1183.7,702.6 1167.7,702.6 1167.7,624.7 1089,624.7 1089,666 
	1036.3,666 1036.3,618.7 979.7,618.7 979.7,520 931.7,520 931.7,490 891.8,490 891.8,583 876.2,583 876.2,551.7 845.7,551.7 
	845.7,595.1 800.5,594.1 800.5,550.7 770,550.7 770,668.1 725,668.1 725,560.7 715.7,560.7 715.7,532.7 673.3,551.3 673.3,560.7 
	664,560.7 664,656 623.4,656 623.4,596 555,564 555,647.7 419,647.7 419,551.3 327.7,551.3 327.7,620.7 303.7,620.7 303.7,702.6 
	264.3,702.6 264.3,647.7 227.7,647.7 227.7,702.6 211,702.6 211,624.7 198.3,624.7 198.3,599.3 189.7,599.3 189.7,588 166.3,588 
	166.3,599.3 157.7,599.3 157.7,624.7 145,624.7 145,702.6 117.9,702.6 117.9,755.1 1282.1,755.1 1282.1,702.6 "/>
<path class="st3" d="M1282.1,757.6H117.9c-1.4,0-2.5-1.1-2.5-2.5v-52.5c0-1.4,1.1-2.5,2.5-2.5h24.6v-75.4c0-1.4,1.1-2.5,2.5-2.5
	h10.2v-22.8c0-1.4,1.1-2.5,2.5-2.5h6.2V588c0-1.4,1.1-2.5,2.5-2.5h23.3c1.4,0,2.5,1.1,2.5,2.5v8.8h6.2c1.4,0,2.5,1.1,2.5,2.5v22.8
	H211c1.4,0,2.5,1.1,2.5,2.5v75.4h11.7v-52.4c0-1.4,1.1-2.5,2.5-2.5h36.7c1.4,0,2.5,1.1,2.5,2.5v52.4h34.3v-79.4
	c0-1.4,1.1-2.5,2.5-2.5h21.5v-66.8c0-1.4,1.1-2.5,2.5-2.5H419c1.4,0,2.5,1.1,2.5,2.5v93.8h131V564c0-0.9,0.4-1.7,1.2-2.1
	c0.7-0.5,1.6-0.5,2.4-0.2l68.4,32c0.9,0.4,1.4,1.3,1.4,2.3v57.5h35.6v-92.8c0-1.4,1.1-2.5,2.5-2.5h6.8v-6.8c0-1,0.6-1.9,1.5-2.3
	l42.3-18.7c0.8-0.3,1.7-0.3,2.4,0.2c0.7,0.5,1.1,1.3,1.1,2.1v25.5h6.8c1.4,0,2.5,1.1,2.5,2.5v104.9h40V550.7c0-1.4,1.1-2.5,2.5-2.5
	h30.5c1.4,0,2.5,1.1,2.5,2.5v41l40.2,0.9v-40.9c0-1.4,1.1-2.5,2.5-2.5h30.5c1.4,0,2.5,1.1,2.5,2.5v28.8h10.7V490
	c0-1.4,1.1-2.5,2.5-2.5h39.8c1.4,0,2.5,1.1,2.5,2.5v27.5h45.5c1.4,0,2.5,1.1,2.5,2.5v96.2h54.2c1.4,0,2.5,1.1,2.5,2.5v44.8h47.7
	v-38.8c0-1.4,1.1-2.5,2.5-2.5h78.7c1.4,0,2.5,1.1,2.5,2.5v75.4h11V530c0-1.4,1.1-2.5,2.5-2.5h85.3c1.4,0,2.5,1.1,2.5,2.5v170.1h10.6
	c1.4,0,2.5,1.1,2.5,2.5v52.5C1284.6,756.5,1283.4,757.6,1282.1,757.6z M120.4,752.6h1159.1v-47.5H1269c-1.4,0-2.5-1.1-2.5-2.5V532.5
	h-80.3v170.1c0,1.4-1.1,2.5-2.5,2.5h-16c-1.4,0-2.5-1.1-2.5-2.5v-75.4h-73.7V666c0,1.4-1.1,2.5-2.5,2.5h-52.7
	c-1.4,0-2.5-1.1-2.5-2.5v-44.8h-54.2c-1.4,0-2.5-1.1-2.5-2.5v-96.2h-45.5c-1.4,0-2.5-1.1-2.5-2.5v-27.5h-34.8V583
	c0,1.4-1.1,2.5-2.5,2.5h-15.7c-1.4,0-2.5-1.1-2.5-2.5v-28.8h-25.5v40.9c0,0.7-0.3,1.3-0.8,1.8c-0.5,0.5-1.1,0.8-1.8,0.7l-45.2-1
	c-1.4,0-2.4-1.1-2.4-2.5v-40.9h-25.5v114.9c0,1.4-1.1,2.5-2.5,2.5h-45c-1.4,0-2.5-1.1-2.5-2.5V563.2h-6.8c-1.4,0-2.5-1.1-2.5-2.5
	v-24.2L675.8,553v7.7c0,1.4-1.1,2.5-2.5,2.5h-6.8V656c0,1.4-1.1,2.5-2.5,2.5h-40.6c-1.4,0-2.5-1.1-2.5-2.5v-58.4l-63.4-29.7v79.7
	c0,1.4-1.1,2.5-2.5,2.5H419c-1.4,0-2.5-1.1-2.5-2.5v-93.8h-86.3v66.8c0,1.4-1.1,2.5-2.5,2.5h-21.5v79.4c0,1.4-1.1,2.5-2.5,2.5h-39.3
	c-1.4,0-2.5-1.1-2.5-2.5v-52.4h-31.7v52.4c0,1.4-1.1,2.5-2.5,2.5H211c-1.4,0-2.5-1.1-2.5-2.5v-75.4h-10.2c-1.4,0-2.5-1.1-2.5-2.5
	v-22.8h-6.2c-1.4,0-2.5-1.1-2.5-2.5v-8.8h-18.3v8.8c0,1.4-1.1,2.5-2.5,2.5h-6.2v22.8c0,1.4-1.1,2.5-2.5,2.5h-10.2v75.4
	c0,1.4-1.1,2.5-2.5,2.5h-24.6V752.6z"/>
<g>
	<rect x="440.9" y="571.3" class="st8" width="152.5" height="126"/>
	<path class="st9" d="M593.4,604H440.9c-0.6,0-1-0.4-1-1s0.4-1,1-1h152.5c0.6,0,1,0.4,1,1S594,604,593.4,604z"/>
	<g>
		<g>
			<rect x="454.2" y="582.3" class="st3" width="15.2" height="9.9"/>
			<path class="st9" d="M469.4,593.2h-15.2c-0.6,0-1-0.4-1-1v-9.9c0-0.6,0.4-1,1-1h15.2c0.6,0,1,0.4,1,1v9.9
				C470.4,592.8,470,593.2,469.4,593.2z M455.2,591.2h13.2v-7.9h-13.2V591.2z"/>
		</g>
		<g>
			<rect x="481.9" y="582.3" class="st3" width="15.2" height="9.9"/>
			<path class="st9" d="M497.1,593.2h-15.2c-0.6,0-1-0.4-1-1v-9.9c0-0.6,0.4-1,1-1h15.2c0.6,0,1,0.4,1,1v9.9
				C498.1,592.8,497.6,593.2,497.1,593.2z M482.9,591.2h13.2v-7.9h-13.2V591.2z"/>
		</g>
		<g>
			<rect x="509.6" y="582.3" class="st3" width="15.2" height="9.9"/>
			<path class="st9" d="M524.7,593.2h-15.2c-0.6,0-1-0.4-1-1v-9.9c0-0.6,0.4-1,1-1h15.2c0.6,0,1,0.4,1,1v9.9
				C525.7,592.8,525.3,593.2,524.7,593.2z M510.6,591.2h13.2v-7.9h-13.2V591.2z"/>
		</g>
		<g>
			<rect x="537.2" y="582.3" class="st3" width="15.2" height="9.9"/>
			<path class="st9" d="M552.4,593.2h-15.2c-0.6,0-1-0.4-1-1v-9.9c0-0.6,0.4-1,1-1h15.2c0.6,0,1,0.4,1,1v9.9
				C553.4,592.8,552.9,593.2,552.4,593.2z M538.2,591.2h13.2v-7.9h-13.2V591.2z"/>
		</g>
		<g>
			<rect x="564.9" y="582.3" class="st3" width="15.2" height="9.9"/>
			<path class="st9" d="M580,593.2h-15.2c-0.6,0-1-0.4-1-1v-9.9c0-0.6,0.4-1,1-1H580c0.6,0,1,0.4,1,1v9.9
				C581,592.8,580.6,593.2,580,593.2z M565.9,591.2H579v-7.9h-13.2V591.2z"/>
		</g>
	</g>
	<path class="st9" d="M593.4,635.3H440.9c-0.6,0-1-0.4-1-1s0.4-1,1-1h152.5c0.6,0,1,0.4,1,1S594,635.3,593.4,635.3z"/>
	<g>
		<g>
			<rect x="454.2" y="613.6" class="st3" width="15.2" height="9.9"/>
			<path class="st9" d="M469.4,624.5h-15.2c-0.6,0-1-0.4-1-1v-9.9c0-0.6,0.4-1,1-1h15.2c0.6,0,1,0.4,1,1v9.9
				C470.4,624.1,470,624.5,469.4,624.5z M455.2,622.5h13.2v-7.9h-13.2V622.5z"/>
		</g>
		<g>
			<rect x="481.9" y="613.6" class="st3" width="15.2" height="9.9"/>
			<path class="st9" d="M497.1,624.5h-15.2c-0.6,0-1-0.4-1-1v-9.9c0-0.6,0.4-1,1-1h15.2c0.6,0,1,0.4,1,1v9.9
				C498.1,624.1,497.6,624.5,497.1,624.5z M482.9,622.5h13.2v-7.9h-13.2V622.5z"/>
		</g>
		<g>
			<rect x="509.6" y="613.6" class="st3" width="15.2" height="9.9"/>
			<path class="st9" d="M524.7,624.5h-15.2c-0.6,0-1-0.4-1-1v-9.9c0-0.6,0.4-1,1-1h15.2c0.6,0,1,0.4,1,1v9.9
				C525.7,624.1,525.3,624.5,524.7,624.5z M510.6,622.5h13.2v-7.9h-13.2V622.5z"/>
		</g>
		<g>
			<rect x="537.2" y="613.6" class="st3" width="15.2" height="9.9"/>
			<path class="st9" d="M552.4,624.5h-15.2c-0.6,0-1-0.4-1-1v-9.9c0-0.6,0.4-1,1-1h15.2c0.6,0,1,0.4,1,1v9.9
				C553.4,624.1,552.9,624.5,552.4,624.5z M538.2,622.5h13.2v-7.9h-13.2V622.5z"/>
		</g>
		<g>
			<rect x="564.9" y="613.6" class="st3" width="15.2" height="9.9"/>
			<path class="st9" d="M580,624.5h-15.2c-0.6,0-1-0.4-1-1v-9.9c0-0.6,0.4-1,1-1H580c0.6,0,1,0.4,1,1v9.9
				C581,624.1,580.6,624.5,580,624.5z M565.9,622.5H579v-7.9h-13.2V622.5z"/>
		</g>
	</g>
	<path class="st9" d="M593.4,666.7H440.9c-0.6,0-1-0.4-1-1s0.4-1,1-1h152.5c0.6,0,1,0.4,1,1S594,666.7,593.4,666.7z"/>
	<g>
		<g>
			<rect x="454.2" y="644.9" class="st3" width="15.2" height="9.9"/>
			<path class="st9" d="M469.4,655.9h-15.2c-0.6,0-1-0.4-1-1v-9.9c0-0.6,0.4-1,1-1h15.2c0.6,0,1,0.4,1,1v9.9
				C470.4,655.4,470,655.9,469.4,655.9z M455.2,653.9h13.2v-7.9h-13.2V653.9z"/>
		</g>
		<g>
			<rect x="481.9" y="644.9" class="st3" width="15.2" height="9.9"/>
			<path class="st9" d="M497.1,655.9h-15.2c-0.6,0-1-0.4-1-1v-9.9c0-0.6,0.4-1,1-1h15.2c0.6,0,1,0.4,1,1v9.9
				C498.1,655.4,497.6,655.9,497.1,655.9z M482.9,653.9h13.2v-7.9h-13.2V653.9z"/>
		</g>
		<g>
			<rect x="509.6" y="644.9" class="st3" width="15.2" height="9.9"/>
			<path class="st9" d="M524.7,655.9h-15.2c-0.6,0-1-0.4-1-1v-9.9c0-0.6,0.4-1,1-1h15.2c0.6,0,1,0.4,1,1v9.9
				C525.7,655.4,525.3,655.9,524.7,655.9z M510.6,653.9h13.2v-7.9h-13.2V653.9z"/>
		</g>
		<g>
			<rect x="537.2" y="644.9" class="st3" width="15.2" height="9.9"/>
			<path class="st9" d="M552.4,655.9h-15.2c-0.6,0-1-0.4-1-1v-9.9c0-0.6,0.4-1,1-1h15.2c0.6,0,1,0.4,1,1v9.9
				C553.4,655.4,552.9,655.9,552.4,655.9z M538.2,653.9h13.2v-7.9h-13.2V653.9z"/>
		</g>
		<g>
			<rect x="564.9" y="644.9" class="st3" width="15.2" height="9.9"/>
			<path class="st9" d="M580,655.9h-15.2c-0.6,0-1-0.4-1-1v-9.9c0-0.6,0.4-1,1-1H580c0.6,0,1,0.4,1,1v9.9
				C581,655.4,580.6,655.9,580,655.9z M565.9,653.9H579v-7.9h-13.2V653.9z"/>
		</g>
	</g>
	<path class="st3" d="M593.4,699.9H440.9c-1.4,0-2.5-1.1-2.5-2.5v-126c0-1.4,1.1-2.5,2.5-2.5h152.5c1.4,0,2.5,1.1,2.5,2.5v126
		C595.9,698.7,594.8,699.9,593.4,699.9z M443.4,694.9h147.5v-121H443.4V694.9z"/>
	<rect x="495.2" y="559" class="st8" width="91.6" height="12.3"/>
	<path class="st3" d="M586.8,573.8h-91.6c-1.4,0-2.5-1.1-2.5-2.5V559c0-1.4,1.1-2.5,2.5-2.5h91.6c1.4,0,2.5,1.1,2.5,2.5v12.3
		C589.3,572.7,588.2,573.8,586.8,573.8z M497.7,568.8h86.6v-7.3h-86.6V568.8z"/>
</g>
<g>
	<rect x="524.2" y="631.2" class="st8" width="260.7" height="65.9"/>
	<path class="st3" d="M784.9,699.6H524.2c-1.4,0-2.5-1.1-2.5-2.5v-65.9c0-1.4,1.1-2.5,2.5-2.5h260.7c1.4,0,2.5,1.1,2.5,2.5v65.9
		C787.4,698.5,786.3,699.6,784.9,699.6z M526.7,694.6h255.7v-60.9H526.7V694.6z"/>
	<polygon class="st10" points="524.2,631.2 537.2,602.2 771.9,602.2 784.9,631.2 	"/>
	<path class="st3" d="M784.9,633.7H524.2c-0.8,0-1.6-0.4-2.1-1.1c-0.5-0.7-0.5-1.6-0.2-2.4l13-29c0.4-0.9,1.3-1.5,2.3-1.5h234.7
		c1,0,1.9,0.6,2.3,1.5l13,29c0.3,0.8,0.3,1.7-0.2,2.4C786.6,633.2,785.8,633.7,784.9,633.7z M528,628.7h253l-10.8-24H538.8
		L528,628.7z"/>
	<g>
		<g>
			<rect x="733.2" y="664.1" class="st3" width="30.9" height="19.7"/>
			<path class="st9" d="M764,684.8h-30.9c-0.6,0-1-0.4-1-1v-19.7c0-0.6,0.4-1,1-1H764c0.6,0,1,0.4,1,1v19.7
				C765,684.3,764.6,684.8,764,684.8z M734.2,682.8H763v-17.7h-28.9V682.8z"/>
		</g>
		<g>
			<rect x="670.5" y="664.1" class="st3" width="30.9" height="19.7"/>
			<path class="st9" d="M701.3,684.8h-30.9c-0.6,0-1-0.4-1-1v-19.7c0-0.6,0.4-1,1-1h30.9c0.6,0,1,0.4,1,1v19.7
				C702.3,684.3,701.9,684.8,701.3,684.8z M671.5,682.8h28.9v-17.7h-28.9V682.8z"/>
		</g>
		<g>
			<rect x="607.8" y="664.1" class="st3" width="30.9" height="19.7"/>
			<path class="st9" d="M638.6,684.8h-30.9c-0.6,0-1-0.4-1-1v-19.7c0-0.6,0.4-1,1-1h30.9c0.6,0,1,0.4,1,1v19.7
				C639.6,684.3,639.2,684.8,638.6,684.8z M608.8,682.8h28.9v-17.7h-28.9V682.8z"/>
		</g>
		<g>
			<rect x="545" y="664.1" class="st3" width="30.9" height="19.7"/>
			<path class="st9" d="M575.9,684.8H545c-0.6,0-1-0.4-1-1v-19.7c0-0.6,0.4-1,1-1h30.9c0.6,0,1,0.4,1,1v19.7
				C576.9,684.3,576.5,684.8,575.9,684.8z M546,682.8h28.9v-17.7H546V682.8z"/>
		</g>
	</g>
	<g>
		<g>
			<rect x="733.2" y="641" class="st3" width="30.9" height="6.5"/>
			<path class="st9" d="M764,648.5h-30.9c-0.6,0-1-0.4-1-1V641c0-0.6,0.4-1,1-1H764c0.6,0,1,0.4,1,1v6.5
				C765,648.1,764.6,648.5,764,648.5z M734.2,646.5H763V642h-28.9V646.5z"/>
		</g>
		<g>
			<rect x="670.5" y="641" class="st3" width="30.9" height="6.5"/>
			<path class="st9" d="M701.3,648.5h-30.9c-0.6,0-1-0.4-1-1V641c0-0.6,0.4-1,1-1h30.9c0.6,0,1,0.4,1,1v6.5
				C702.3,648.1,701.9,648.5,701.3,648.5z M671.5,646.5h28.9V642h-28.9V646.5z"/>
		</g>
		<g>
			<rect x="607.8" y="641" class="st3" width="30.9" height="6.5"/>
			<path class="st9" d="M638.6,648.5h-30.9c-0.6,0-1-0.4-1-1V641c0-0.6,0.4-1,1-1h30.9c0.6,0,1,0.4,1,1v6.5
				C639.6,648.1,639.2,648.5,638.6,648.5z M608.8,646.5h28.9V642h-28.9V646.5z"/>
		</g>
		<g>
			<rect x="545" y="641" class="st3" width="30.9" height="6.5"/>
			<path class="st9" d="M575.9,648.5H545c-0.6,0-1-0.4-1-1V641c0-0.6,0.4-1,1-1h30.9c0.6,0,1,0.4,1,1v6.5
				C576.9,648.1,576.5,648.5,575.9,648.5z M546,646.5h28.9V642H546V646.5z"/>
		</g>
	</g>
</g>
<g>
	<rect x="272.5" y="697.1" class="st11" width="855" height="75"/>
	<path class="st4" d="M1127.5,774.6h-855c-1.4,0-2.5-1.1-2.5-2.5v-75c0-1.4,1.1-2.5,2.5-2.5h855c1.4,0,2.5,1.1,2.5,2.5v75
		C1130,773.5,1128.9,774.6,1127.5,774.6z M275,769.6h850v-70H275V769.6z"/>
</g>
<g>
	<path class="st12" d="M1283.3,729.4c-37.5,14.8-79.2,14.8-116.7,0c-37.5,14.8-79.2,14.8-116.7,0c-37.5,14.8-79.2,14.8-116.7,0
		c-37.5,14.8-79.2,14.8-116.7,0c-37.5,14.8-79.2,14.8-116.7,0c-37.5,14.8-79.2,14.8-116.7,0c-37.5,14.8-79.2,14.8-116.7,0
		c-37.5,14.8-79.2,14.8-116.7,0c-37.5,14.8-79.2,14.8-116.7,0c-37.5,14.8-79.2,14.8-116.7,0c-37.5,14.8-79.2,14.8-116.7,0V980h1400
		V729.4C1362.5,744.2,1320.8,744.2,1283.3,729.4z"/>
	<path class="st4" d="M44.4,742.4c-0.1,0-0.1,0-0.2,0c-11.9-1-23.6-3.4-34.9-7c-1.3-0.4-2-1.8-1.6-3.1c0.4-1.3,1.8-2,3.1-1.6
		c11,3.5,22.4,5.8,33.8,6.8c1.4,0.1,2.4,1.3,2.3,2.7C46.8,741.4,45.7,742.4,44.4,742.4z"/>
	<path class="st4" d="M1108.3,743.1c-19.8,0-39.5-3.7-58.3-11c-37.7,14.6-79,14.6-116.7,0c-37.7,14.6-79,14.6-116.7,0
		c-37.7,14.6-79,14.6-116.7,0c-37.7,14.6-79,14.6-116.7,0c-37.7,14.6-79,14.6-116.7,0c-37.7,14.6-79,14.6-116.7,0
		c-37.7,14.6-79,14.6-116.7,0c-37.7,14.6-79,14.6-116.7,0c-15.3,6-31.4,9.5-47.9,10.6c-1.4,0.1-2.6-1-2.7-2.3s1-2.6,2.3-2.7
		c16.2-1.1,32.1-4.6,47.3-10.6c0.6-0.2,1.2-0.2,1.8,0c37,14.7,77.8,14.7,114.8,0c0.6-0.2,1.2-0.2,1.8,0c37,14.7,77.8,14.7,114.8,0
		c0.6-0.2,1.2-0.2,1.8,0c37,14.7,77.8,14.7,114.8,0c0.6-0.2,1.2-0.2,1.8,0c37,14.7,77.8,14.7,114.8,0c0.6-0.2,1.2-0.2,1.8,0
		c37,14.7,77.8,14.7,114.8,0c0.6-0.2,1.2-0.2,1.8,0c37,14.7,77.8,14.7,114.8,0c0.6-0.2,1.3-0.2,1.8,0c37,14.7,77.8,14.7,114.8,0
		c0.6-0.2,1.3-0.2,1.8,0c37,14.7,77.8,14.7,114.8,0c0.6-0.2,1.3-0.2,1.8,0c37,14.7,77.8,14.7,114.8,0c0.6-0.2,1.3-0.2,1.8,0
		c7.5,3,15.2,5.4,23,7.1c1.3,0.3,2.2,1.6,1.9,3c-0.3,1.3-1.6,2.2-3,1.9c-7.8-1.8-15.4-4.1-22.9-7
		C1147.8,739.4,1128.1,743.1,1108.3,743.1z"/>
	<path class="st4" d="M1225.1,743c-2.7,0-5.4-0.1-8.2-0.2c-1.4-0.1-2.4-1.2-2.4-2.6s1.2-2.4,2.6-2.4c22.4,1.1,44.3-2.5,65.2-10.8
		c0.6-0.2,1.3-0.2,1.8,0c31.1,12.3,66.1,14.3,98.4,5.5c1.3-0.4,2.7,0.4,3.1,1.8c0.4,1.3-0.4,2.7-1.8,3.1c-33,9-68.7,7.1-100.6-5.3
		C1264.6,739.3,1245.1,743,1225.1,743z"/>
</g>
<g>
	<path class="st2" d="M978.8,401.8c0-5.3-4.3-9.7-9.7-9.7c-0.2,0-0.4,0-0.6,0c0.4-1.5,0.6-3,0.6-4.6c0-9.7-7.9-17.6-17.6-17.6
		c-0.9,0-1.7,0.1-2.5,0.2c-3.7-8.3-12-14.1-21.7-14.1c-9.8,0-18.2,5.9-21.8,14.3c-1.2-0.3-2.4-0.4-3.7-0.4
		c-9.7,0-17.6,7.9-17.6,17.6c0,0.2,0,0.5,0,0.7c-0.9-0.2-1.9-0.3-2.9-0.3c-7.6,0-13.8,6.2-13.8,13.8H978.8z"/>
	<path class="st4" d="M907.8,404.3h-27.3c-1.4,0-2.5-1.1-2.5-2.5s1.1-2.5,2.5-2.5h27.3c1.4,0,2.5,1.1,2.5,2.5
		S909.2,404.3,907.8,404.3z"/>
	<path class="st4" d="M990.2,404.3h-11.4c-1.4,0-2.5-1.1-2.5-2.5c0-3.9-3.2-7.2-7.2-7.2c-0.1,0-0.2,0-0.3,0l-0.1,0
		c-0.8,0.1-1.6-0.3-2.1-0.9c-0.5-0.6-0.7-1.5-0.5-2.2c0.4-1.3,0.5-2.6,0.5-4c0-8.3-6.8-15.1-15.1-15.1c-0.7,0-1.4,0.1-2.2,0.2
		c-1.1,0.2-2.2-0.4-2.6-1.5c-3.4-7.7-11-12.6-19.4-12.6c-8.5,0-16.1,5-19.5,12.8c-0.5,1.1-1.7,1.7-2.8,1.5c-1.1-0.2-2.1-0.3-3.2-0.3
		c-8.3,0-15.1,6.8-15.1,15.1c0,0.2,0,0.4,0,0.6c0,0.8-0.3,1.5-0.9,2c-0.6,0.5-1.4,0.7-2.1,0.5c-0.8-0.2-1.6-0.3-2.4-0.3
		c-6.3,0-11.3,5.1-11.3,11.3c0,1.4-1.1,2.5-2.5,2.5h-15.6c-1.4,0-2.5-1.1-2.5-2.5s1.1-2.5,2.5-2.5h13.3c1.2-8,8.3-14.1,16.6-13.8
		c1-10.1,9.6-18.1,20-18.1c0.8,0,1.5,0,2.3,0.1c4.5-8.6,13.4-14.1,23.3-14.1c9.8,0,18.7,5.4,23.2,14c11.6-0.6,21.2,8.7,21.2,20.1
		c0,0.8,0,1.6-0.1,2.3c4.8,0.9,8.5,4.7,9.5,9.4h9.1c1.4,0,2.5,1.1,2.5,2.5S991.6,404.3,990.2,404.3z"/>
	<path class="st4" d="M969.1,404.3H948c-1.4,0-2.5-1.1-2.5-2.5s1.1-2.5,2.5-2.5h21.1c1.4,0,2.5,1.1,2.5,2.5S970.5,404.3,969.1,404.3
		z"/>
	<path class="st4" d="M842.8,404.3h-6.2c-1.4,0-2.5-1.1-2.5-2.5s1.1-2.5,2.5-2.5h6.2c1.4,0,2.5,1.1,2.5,2.5S844.2,404.3,842.8,404.3
		z"/>
</g>
<g>
	<path class="st2" d="M1045.3,314.6c0-6.5,5.3-11.7,11.7-11.7c0.3,0,0.5,0,0.8,0c-0.5-1.8-0.8-3.7-0.8-5.6
		c0-11.8,9.6-21.4,21.4-21.4c1,0,2.1,0.1,3.1,0.2c4.5-10.1,14.6-17.2,26.4-17.2c11.9,0,22.1,7.2,26.5,17.4c1.5-0.3,3-0.5,4.5-0.5
		c11.8,0,21.4,9.6,21.4,21.4c0,0.3,0,0.6,0,0.9c1.1-0.2,2.3-0.4,3.5-0.4c9.3,0,16.8,7.5,16.8,16.8H1045.3z"/>
	<path class="st4" d="M1140,317.1h-19.8c-1.4,0-2.5-1.1-2.5-2.5s1.1-2.5,2.5-2.5h19.8c1.4,0,2.5,1.1,2.5,2.5
		S1141.4,317.1,1140,317.1z"/>
	<path class="st4" d="M1164.7,317.1H1153c-1.4,0-2.5-1.1-2.5-2.5s1.1-2.5,2.5-2.5h11.7c1.4,0,2.5,1.1,2.5,2.5
		S1166.1,317.1,1164.7,317.1z"/>
	<path class="st4" d="M1199.6,317.1h-18.9c-1.4,0-2.5-1.1-2.5-2.5c0-7.9-6.4-14.3-14.3-14.3c-1,0-2,0.1-3,0.3
		c-0.8,0.2-1.5,0-2.1-0.5c-0.6-0.5-0.9-1.2-0.9-2c0-0.3,0-0.5,0-0.8c0-10.4-8.5-18.9-18.9-18.9c-1.3,0-2.7,0.1-4,0.4
		c-1.2,0.2-2.3-0.4-2.8-1.5c-4.2-9.7-13.7-15.9-24.2-15.9c-10.4,0-19.9,6.1-24.1,15.7c-0.5,1-1.5,1.6-2.6,1.5
		c-0.9-0.1-1.8-0.2-2.7-0.2c-10.4,0-18.9,8.5-18.9,18.9c0,1.7,0.2,3.3,0.7,5c0.2,0.8,0,1.6-0.5,2.2s-1.3,1-2.1,0.9l-0.2,0
		c-0.1,0-0.3,0-0.4,0c-5.1,0-9.2,4.1-9.2,9.2c0,1.4-1.1,2.5-2.5,2.5h-13.8c-1.4,0-2.5-1.1-2.5-2.5s1.1-2.5,2.5-2.5h11.5
		c1.1-5.9,5.8-10.6,11.7-11.5c-0.1-1.1-0.2-2.2-0.2-3.3c0-13.7,11.6-24.8,25.5-23.9c5.4-10.4,16.1-17,27.9-17
		c11.9,0,22.6,6.7,27.9,17.1c1-0.1,2-0.2,3.1-0.2c12.5,0,22.8,9.7,23.8,22c0.4,0,0.7,0,1.1,0c9.8,0,17.9,7.3,19.1,16.8h16.6
		c1.4,0,2.5,1.1,2.5,2.5S1201,317.1,1199.6,317.1z"/>
	<path class="st4" d="M1082.8,317.1h-25.6c-1.4,0-2.5-1.1-2.5-2.5s1.1-2.5,2.5-2.5h25.6c1.4,0,2.5,1.1,2.5,2.5
		S1084.2,317.1,1082.8,317.1z"/>
</g>
<g>
	<path class="st2" d="M456,331.5c0-10.5-8.5-18.9-18.9-18.9c0-8.1-6.5-14.6-14.6-14.6c-0.8,0-1.7,0.1-2.5,0.2c0.5-1.9,0.8-4,0.8-6.1
		c0-13.7-11.1-24.9-24.9-24.9c-8.5,0-16,4.3-20.5,10.8c-4.1-3.1-9.3-4.9-14.8-4.9c-11.7,0-21.5,8.1-24.2,19.1
		c-1.1-0.2-2.2-0.3-3.3-0.3c-10.9,0-19.8,8.9-19.8,19.8c0,1.8,0.3,3.6,0.7,5.3c-0.2,0-0.5,0-0.7,0c-8,0-14.5,6.5-14.5,14.5H456z"/>
	<path class="st4" d="M332.3,334h-15.3c-1.4,0-2.5-1.1-2.5-2.5s1.1-2.5,2.5-2.5h15.3c1.4,0,2.5,1.1,2.5,2.5S333.6,334,332.3,334z"/>
	<path class="st4" d="M456,334h-16.1c-1.4,0-2.5-1.1-2.5-2.5s1.1-2.5,2.5-2.5h13.4c-1.2-7.9-8-13.9-16.2-13.9
		c-1.4,0-2.5-1.1-2.5-2.5c0-6.7-5.4-12.1-12.1-12.1c-0.6,0-1.3,0.1-2,0.2c-0.8,0.1-1.7-0.1-2.3-0.8c-0.6-0.6-0.8-1.5-0.6-2.3
		c0.5-1.9,0.7-3.7,0.7-5.5c0-12.3-10-22.4-22.4-22.4c-7.4,0-14.2,3.6-18.4,9.7c-0.4,0.6-1,0.9-1.7,1c-0.7,0.1-1.4-0.1-1.9-0.5
		c-3.9-2.9-8.5-4.4-13.3-4.4c-10.4,0-19.3,7.1-21.7,17.2c-0.3,1.3-1.6,2.1-2.9,1.9c-1.1-0.2-2-0.3-2.9-0.3
		c-9.5,0-17.3,7.8-17.3,17.3c0,1.5,0.2,3.1,0.7,4.6c0.2,0.8,0,1.6-0.5,2.2c-0.5,0.6-1.3,1-2.1,0.9l-0.3,0c-0.1,0-0.2,0-0.3,0
		c-6.6,0-12,5.4-12,12c0,1.4-1.1,2.5-2.5,2.5h-15.6c-1.4,0-2.5-1.1-2.5-2.5s1.1-2.5,2.5-2.5h13.3c1.1-7.5,7.1-13.4,14.6-14.4
		c-0.1-1-0.2-2-0.2-2.9c0-12.3,10-22.3,22.3-22.3c0.5,0,1,0,1.5,0.1c3.6-11.2,14-18.8,26-18.8c5.1,0,10,1.4,14.3,4
		c5.2-6.2,12.9-9.9,21-9.9c15.1,0,27.4,12.3,27.4,27.4c0,1.1-0.1,2.2-0.2,3.4c8.4,0.3,15.2,6.6,16.4,14.7
		c10.7,1.2,19.1,10.3,19.1,21.3C458.5,332.9,457.4,334,456,334z"/>
	<path class="st4" d="M427.5,334h-13c-1.4,0-2.5-1.1-2.5-2.5s1.1-2.5,2.5-2.5h13c1.4,0,2.5,1.1,2.5,2.5S428.9,334,427.5,334z"/>
	<path class="st4" d="M271.3,334h-14.2c-1.4,0-2.5-1.1-2.5-2.5s1.1-2.5,2.5-2.5h14.2c1.4,0,2.5,1.1,2.5,2.5S272.7,334,271.3,334z"/>
</g>
<path class="st13" d="M996.6,946.3c-12.9,0-25.8-2.4-38-7.1c-24.6,9.5-51.5,9.5-76.1,0c-24.9,9.6-52.2,9.5-77-0.4
	c-1.3-0.5-1.9-2-1.4-3.2c0.5-1.3,2-1.9,3.2-1.4c23.9,9.5,50.3,9.5,74.3,0c0.6-0.2,1.3-0.2,1.8,0c23.9,9.5,50.3,9.5,74.3,0
	c0.6-0.2,1.3-0.2,1.8,0c23.9,9.5,50.3,9.5,74.3,0c0.6-0.2,1.3-0.2,1.8,0c23.9,9.5,50.3,9.5,74.3,0c1.3-0.5,2.7,0.1,3.2,1.4
	c0.5,1.3-0.1,2.7-1.4,3.2c-24.8,9.8-52.1,9.9-77,0.4C1022.3,943.9,1009.5,946.3,996.6,946.3z"/>
<g>
	<path class="st13" d="M471.5,961.5c-12.9,0-25.8-2.4-38-7.1c-24.9,9.6-52.2,9.5-77-0.4c-1.3-0.5-1.9-2-1.4-3.2
		c0.5-1.3,2-1.9,3.2-1.4c23.9,9.5,50.3,9.5,74.3,0c0.6-0.2,1.2-0.2,1.8,0c23.9,9.5,50.3,9.5,74.3,0c0.6-0.2,1.2-0.2,1.8,0
		c12.7,5,26.2,7.4,39.9,7c1.4-0.1,2.5,1.1,2.6,2.4c0,1.4-1.1,2.5-2.4,2.6c-14.1,0.4-27.8-2-40.9-7
		C497.3,959.2,484.4,961.5,471.5,961.5z"/>
	<path class="st13" d="M574.7,957.9c-1.1,0-2.1-0.7-2.4-1.8c-0.4-1.3,0.4-2.7,1.8-3.1c3.6-1,7.2-2.2,10.6-3.5
		c1.3-0.5,2.7,0.1,3.2,1.4c0.5,1.3-0.1,2.7-1.4,3.2c-3.6,1.4-7.4,2.7-11.2,3.7C575.2,957.9,575,957.9,574.7,957.9z"/>
</g>
<g>
	<g>
		<rect x="332.2" y="633.4" class="st14" width="65.2" height="7.8"/>
		<path class="st4" d="M397.4,643.8h-65.2c-1.4,0-2.5-1.1-2.5-2.5v-7.8c0-1.4,1.1-2.5,2.5-2.5h65.2c1.4,0,2.5,1.1,2.5,2.5v7.8
			C399.9,642.6,398.8,643.8,397.4,643.8z M334.7,638.8h60.2v-2.8h-60.2V638.8z"/>
	</g>
	<g>
		<rect x="339" y="561.4" class="st14" width="58.4" height="7.8"/>
		<path class="st4" d="M397.4,571.8H339c-1.4,0-2.5-1.1-2.5-2.5v-7.8c0-1.4,1.1-2.5,2.5-2.5h58.4c1.4,0,2.5,1.1,2.5,2.5v7.8
			C399.9,570.6,398.8,571.8,397.4,571.8z M341.5,566.8h53.4v-2.8h-53.4V566.8z"/>
	</g>
	<polygon class="st14" points="208.4,520.5 208.4,527.2 230,534 433,534 433,520.5 	"/>
	<path class="st4" d="M433,536.5H230c-0.3,0-0.5,0-0.7-0.1l-21.6-6.8c-1-0.3-1.8-1.3-1.8-2.4v-6.8c0-1.4,1.1-2.5,2.5-2.5H433
		c1.4,0,2.5,1.1,2.5,2.5V534C435.5,535.4,434.4,536.5,433,536.5z M230.4,531.5h200.1V523H210.9v2.4L230.4,531.5z"/>
	<rect x="337.3" y="442.5" class="st14" width="9.3" height="72.5"/>
	<polygon class="st14" points="316.9,697.1 337.3,515 346.6,515 326.2,697.1 	"/>
	<rect x="397.4" y="502" class="st14" width="9.3" height="194.6"/>
	<path class="st4" d="M346.6,517.5h-9.3c-1.4,0-2.5-1.1-2.5-2.5v-72.5c0-1.4,1.1-2.5,2.5-2.5h9.3c1.4,0,2.5,1.1,2.5,2.5V515
		C349.1,516.4,348,517.5,346.6,517.5z M339.8,512.5h4.3V445h-4.3V512.5z"/>
	<path class="st4" d="M326.2,699.6h-9.3c-0.7,0-1.4-0.3-1.9-0.8c-0.5-0.5-0.7-1.2-0.6-1.9l20.5-182.1c0.1-1.3,1.2-2.2,2.5-2.2h9.3
		c0.7,0,1.4,0.3,1.9,0.8c0.5,0.5,0.7,1.2,0.6,1.9l-20.5,182.1C328.5,698.6,327.4,699.6,326.2,699.6z M319.7,694.6h4.3l19.9-177.1
		h-4.3L319.7,694.6z"/>
	<path class="st4" d="M406.7,699.1h-9.3c-1.4,0-2.5-1.1-2.5-2.5V502c0-1.4,1.1-2.5,2.5-2.5h9.3c1.4,0,2.5,1.1,2.5,2.5v194.6
		C409.2,697.9,408.1,699.1,406.7,699.1z M399.9,694.1h4.3V504.5h-4.3V694.1z"/>
	<path class="st4" d="M429.3,523c-0.6,0-1.2-0.2-1.6-0.6L345,449.9c-1-0.9-1.1-2.5-0.2-3.5c0.9-1,2.5-1.1,3.5-0.2l82.7,72.5
		c1,0.9,1.1,2.5,0.2,3.5C430.7,522.7,430,523,429.3,523z"/>
	<path class="st4" d="M227.3,523c-0.8,0-1.6-0.4-2.1-1.1c-0.8-1.2-0.4-2.7,0.7-3.5l110-72.5c1.2-0.8,2.7-0.4,3.5,0.7
		c0.8,1.2,0.4,2.7-0.7,3.5l-110,72.5C228.3,522.8,227.8,523,227.3,523z"/>
	<g>
		<rect x="346.6" y="505.4" class="st14" width="50.8" height="7.8"/>
		<path class="st4" d="M397.4,515.8h-50.8c-1.4,0-2.5-1.1-2.5-2.5v-7.8c0-1.4,1.1-2.5,2.5-2.5h50.8c1.4,0,2.5,1.1,2.5,2.5v7.8
			C399.9,514.6,398.8,515.8,397.4,515.8z M349.1,510.8h45.8v-2.8h-45.8V510.8z"/>
	</g>
	<path class="st4" d="M341.7,563.9c-0.7,0-1.4-0.3-1.9-0.9c-0.9-1-0.8-2.6,0.3-3.5l55.6-48.2c1-0.9,2.6-0.8,3.5,0.3
		c0.9,1,0.8,2.6-0.3,3.5l-55.6,48.2C342.9,563.7,342.3,563.9,341.7,563.9z"/>
	<path class="st4" d="M334.2,635.9c-0.6,0-1.2-0.2-1.7-0.7c-1-1-1-2.5-0.1-3.5l61.5-64.2c1-1,2.5-1,3.5-0.1c1,1,1,2.5,0.1,3.5
		L336,635.2C335.5,635.7,334.8,635.9,334.2,635.9z"/>
</g>
<g>
	<path class="st14" d="M1051.3,505.8l-53-60.9l-53,60.9l-6-5.3l56.1-64.4c0.8-0.9,1.9-1.4,3-1.4c1.2,0,2.3,0.5,3,1.4l56.1,64.4
		L1051.3,505.8z"/>
	<path class="st4" d="M945.2,508.3c-0.6,0-1.2-0.2-1.6-0.6l-6-5.3c-1-0.9-1.1-2.5-0.2-3.5l56.1-64.4c1.2-1.4,3-2.2,4.9-2.2
		s3.7,0.8,4.9,2.2l56.1,64.4c0.9,1,0.8,2.6-0.2,3.5l-6,5.3c-0.5,0.4-1.1,0.7-1.8,0.6c-0.7,0-1.3-0.4-1.7-0.9l-51.2-58.7l-51.2,58.7
		c-0.4,0.5-1.1,0.8-1.7,0.9C945.3,508.3,945.2,508.3,945.2,508.3z M998.2,442.4c0.7,0,1.4,0.3,1.9,0.9l51.4,59l2.3-2l-54.4-62.5
		c-0.6-0.7-1.7-0.7-2.3,0l-54.4,62.5l2.3,2l51.4-59C996.8,442.7,997.5,442.4,998.2,442.4z"/>
	<polygon class="st14" points="946.8,697.4 946.8,512.2 1049.6,512.2 1049.6,697.4 1062.6,697.4 1062.6,499.2 933.8,499.2 
		933.8,697.4 	"/>
	<path class="st4" d="M1062.6,699.9h-13c-1.4,0-2.5-1.1-2.5-2.5V514.7h-97.8v182.7c0,1.4-1.1,2.5-2.5,2.5h-13
		c-1.4,0-2.5-1.1-2.5-2.5V499.2c0-1.4,1.1-2.5,2.5-2.5h128.8c1.4,0,2.5,1.1,2.5,2.5v198.2C1065.1,698.7,1064,699.9,1062.6,699.9z
		 M1052.1,694.9h8V501.7H936.3v193.2h8V512.2c0-1.4,1.1-2.5,2.5-2.5h102.8c1.4,0,2.5,1.1,2.5,2.5V694.9z"/>
	<rect x="984.4" y="521.7" class="st14" width="27.7" height="12.3"/>
	<path class="st4" d="M1012,536.5h-27.7c-1.4,0-2.5-1.1-2.5-2.5v-12.3c0-1.4,1.1-2.5,2.5-2.5h27.7c1.4,0,2.5,1.1,2.5,2.5V534
		C1014.5,535.4,1013.4,536.5,1012,536.5z M986.9,531.5h22.7v-7.3h-22.7V531.5z"/>
	<path class="st4" d="M998.2,524.2c-1.4,0-2.5-1.1-2.5-2.5v-9.5c0-1.4,1.1-2.5,2.5-2.5s2.5,1.1,2.5,2.5v9.5
		C1000.7,523,999.6,524.2,998.2,524.2z"/>
	<path class="st4" d="M1062.6,501.7H933.8c-1.4,0-2.5-1.1-2.5-2.5V487c0-1.4,1.1-2.5,2.5-2.5h128.8c1.4,0,2.5,1.1,2.5,2.5v12.2
		C1065.1,500.6,1064,501.7,1062.6,501.7z M936.3,496.7h123.8v-7.2H936.3V496.7z"/>
	<g>
		<path class="st4" d="M945.6,501.7c-1.4,0-2.5-1.1-2.5-2.5V487c0-1.4,1.1-2.5,2.5-2.5s2.5,1.1,2.5,2.5v12.2
			C948.1,500.6,947,501.7,945.6,501.7z"/>
		<path class="st4" d="M958.8,501.7c-1.4,0-2.5-1.1-2.5-2.5V487c0-1.4,1.1-2.5,2.5-2.5s2.5,1.1,2.5,2.5v12.2
			C961.3,500.6,960.2,501.7,958.8,501.7z"/>
		<path class="st4" d="M971.9,501.7c-1.4,0-2.5-1.1-2.5-2.5V487c0-1.4,1.1-2.5,2.5-2.5s2.5,1.1,2.5,2.5v12.2
			C974.4,500.6,973.3,501.7,971.9,501.7z"/>
		<path class="st4" d="M985.1,501.7c-1.4,0-2.5-1.1-2.5-2.5V487c0-1.4,1.1-2.5,2.5-2.5s2.5,1.1,2.5,2.5v12.2
			C987.6,500.6,986.4,501.7,985.1,501.7z"/>
		<path class="st4" d="M998.2,501.7c-1.4,0-2.5-1.1-2.5-2.5V487c0-1.4,1.1-2.5,2.5-2.5s2.5,1.1,2.5,2.5v12.2
			C1000.7,500.6,999.6,501.7,998.2,501.7z"/>
		<path class="st4" d="M1011.4,501.7c-1.4,0-2.5-1.1-2.5-2.5V487c0-1.4,1.1-2.5,2.5-2.5s2.5,1.1,2.5,2.5v12.2
			C1013.9,500.6,1012.7,501.7,1011.4,501.7z"/>
		<path class="st4" d="M1024.5,501.7c-1.4,0-2.5-1.1-2.5-2.5V487c0-1.4,1.1-2.5,2.5-2.5s2.5,1.1,2.5,2.5v12.2
			C1027,500.6,1025.9,501.7,1024.5,501.7z"/>
		<path class="st4" d="M1037.7,501.7c-1.4,0-2.5-1.1-2.5-2.5V487c0-1.4,1.1-2.5,2.5-2.5s2.5,1.1,2.5,2.5v12.2
			C1040.2,500.6,1039,501.7,1037.7,501.7z"/>
		<path class="st4" d="M1050.8,501.7c-1.4,0-2.5-1.1-2.5-2.5V487c0-1.4,1.1-2.5,2.5-2.5s2.5,1.1,2.5,2.5v12.2
			C1053.3,500.6,1052.2,501.7,1050.8,501.7z"/>
	</g>
	<g>
		<g>
			<path class="st4" d="M1077.9,542.8c-1,0-2-0.6-2.3-1.6l-15.3-39.6c-0.5-1.3,0.1-2.7,1.4-3.2c1.3-0.5,2.7,0.1,3.2,1.4l15.3,39.6
				c0.5,1.3-0.1,2.7-1.4,3.2C1078.5,542.7,1078.2,542.8,1077.9,542.8z"/>
			<path class="st4" d="M1077.9,542.8h-15.3c-1.4,0-2.5-1.1-2.5-2.5s1.1-2.5,2.5-2.5h15.3c1.4,0,2.5,1.1,2.5,2.5
				S1079.3,542.8,1077.9,542.8z"/>
			<path class="st4" d="M1077.9,582c-1,0-2-0.6-2.3-1.6l-15.3-39.6c-0.5-1.3,0.1-2.7,1.4-3.2c1.3-0.5,2.7,0.1,3.2,1.4l15.3,39.6
				c0.5,1.3-0.1,2.7-1.4,3.2C1078.5,581.9,1078.2,582,1077.9,582z"/>
			<path class="st4" d="M1077.9,582h-15.3c-1.4,0-2.5-1.1-2.5-2.5s1.1-2.5,2.5-2.5h15.3c1.4,0,2.5,1.1,2.5,2.5
				S1079.3,582,1077.9,582z"/>
			<path class="st4" d="M1077.9,621.2c-1,0-2-0.6-2.3-1.6l-15.3-39.6c-0.5-1.3,0.1-2.7,1.4-3.2c1.3-0.5,2.7,0.1,3.2,1.4l15.3,39.6
				c0.5,1.3-0.1,2.7-1.4,3.2C1078.5,621.1,1078.2,621.2,1077.9,621.2z"/>
			<path class="st4" d="M1077.9,621.2h-15.3c-1.4,0-2.5-1.1-2.5-2.5s1.1-2.5,2.5-2.5h15.3c1.4,0,2.5,1.1,2.5,2.5
				S1079.3,621.2,1077.9,621.2z"/>
			<path class="st4" d="M1077.9,660.4c-1,0-2-0.6-2.3-1.6l-15.3-39.6c-0.5-1.3,0.1-2.7,1.4-3.2c1.3-0.5,2.7,0.1,3.2,1.4l15.3,39.6
				c0.5,1.3-0.1,2.7-1.4,3.2C1078.5,660.3,1078.2,660.4,1077.9,660.4z"/>
			<path class="st4" d="M1077.9,660.4h-15.3c-1.4,0-2.5-1.1-2.5-2.5s1.1-2.5,2.5-2.5h15.3c1.4,0,2.5,1.1,2.5,2.5
				S1079.3,660.4,1077.9,660.4z"/>
			<path class="st4" d="M1077.9,699.6c-1,0-2-0.6-2.3-1.6l-15.3-39.6c-0.5-1.3,0.1-2.7,1.4-3.2c1.3-0.5,2.7,0.1,3.2,1.4l15.3,39.6
				c0.5,1.3-0.1,2.7-1.4,3.2C1078.5,699.5,1078.2,699.6,1077.9,699.6z"/>
			<path class="st4" d="M1077.9,699.6h-15.3c-1.4,0-2.5-1.1-2.5-2.5s1.1-2.5,2.5-2.5h15.3c1.4,0,2.5,1.1,2.5,2.5
				S1079.3,699.6,1077.9,699.6z"/>
		</g>
		<path class="st4" d="M1077.9,699.6h-15.3c-1.4,0-2.5-1.1-2.5-2.5V500.7c0-1.4,1.1-2.5,2.5-2.5h15.3c1.4,0,2.5,1.1,2.5,2.5v196.4
			C1080.4,698.5,1079.3,699.6,1077.9,699.6z M1065.1,694.6h10.3V503.2h-10.3V694.6z"/>
	</g>
	<path class="st4" d="M998.2,524.2c-1.4,0-2.5-1.1-2.5-2.5v-76.7c0-1.4,1.1-2.5,2.5-2.5s2.5,1.1,2.5,2.5v76.7
		C1000.7,523,999.6,524.2,998.2,524.2z"/>
</g>
<g>
	<path class="st15" d="M828.4,505.8l-53-60.9l-53,60.9l-6-5.3l56.1-64.4c0.8-0.9,1.9-1.4,3-1.4c1.2,0,2.3,0.5,3,1.4l56.1,64.4
		L828.4,505.8z"/>
	<path class="st4" d="M722.4,508.3c-0.6,0-1.2-0.2-1.6-0.6l-6-5.3c-1-0.9-1.1-2.5-0.2-3.5l56.1-64.4c1.2-1.4,3-2.2,4.9-2.2
		s3.7,0.8,4.9,2.2l56.1,64.4c0.9,1,0.8,2.6-0.2,3.5l-6,5.3c-0.5,0.4-1.1,0.7-1.8,0.6c-0.7,0-1.3-0.4-1.7-0.9l-51.2-58.7l-51.2,58.7
		c-0.4,0.5-1.1,0.8-1.7,0.9C722.5,508.3,722.4,508.3,722.4,508.3z M775.4,442.4c0.7,0,1.4,0.3,1.9,0.9l51.4,59l2.3-2l-54.4-62.5
		c-0.6-0.7-1.7-0.7-2.3,0l-54.4,62.5l2.3,2l51.4-59C774,442.7,774.7,442.4,775.4,442.4z"/>
	<polygon class="st15" points="724,697.1 724,512.2 826.8,512.2 826.8,697.4 839.8,697.4 839.8,499.2 711,499.2 711,697.1 	"/>
	<path class="st4" d="M839.8,699.9h-13c-1.4,0-2.5-1.1-2.5-2.5V514.7h-97.8v182.4c0,1.4-1.1,2.5-2.5,2.5h-13c-1.4,0-2.5-1.1-2.5-2.5
		V499.2c0-1.4,1.1-2.5,2.5-2.5h128.8c1.4,0,2.5,1.1,2.5,2.5v198.2C842.3,698.7,841.2,699.9,839.8,699.9z M829.3,694.9h8V501.7H713.5
		v192.9h8V512.2c0-1.4,1.1-2.5,2.5-2.5h102.8c1.4,0,2.5,1.1,2.5,2.5V694.9z"/>
	<rect x="761.6" y="521.7" class="st15" width="27.7" height="12.3"/>
	<path class="st4" d="M789.2,536.5h-27.7c-1.4,0-2.5-1.1-2.5-2.5v-12.3c0-1.4,1.1-2.5,2.5-2.5h27.7c1.4,0,2.5,1.1,2.5,2.5V534
		C791.7,535.4,790.6,536.5,789.2,536.5z M764.1,531.5h22.7v-7.3h-22.7V531.5z"/>
	<path class="st4" d="M775.4,524.2c-1.4,0-2.5-1.1-2.5-2.5v-9.5c0-1.4,1.1-2.5,2.5-2.5s2.5,1.1,2.5,2.5v9.5
		C777.9,523,776.8,524.2,775.4,524.2z"/>
	<path class="st4" d="M839.8,501.7H711c-1.4,0-2.5-1.1-2.5-2.5V487c0-1.4,1.1-2.5,2.5-2.5h128.8c1.4,0,2.5,1.1,2.5,2.5v12.2
		C842.3,500.6,841.2,501.7,839.8,501.7z M713.5,496.7h123.8v-7.2H713.5V496.7z"/>
	<g>
		<path class="st4" d="M722.8,501.7c-1.4,0-2.5-1.1-2.5-2.5V487c0-1.4,1.1-2.5,2.5-2.5s2.5,1.1,2.5,2.5v12.2
			C725.3,500.6,724.2,501.7,722.8,501.7z"/>
		<path class="st4" d="M736,501.7c-1.4,0-2.5-1.1-2.5-2.5V487c0-1.4,1.1-2.5,2.5-2.5s2.5,1.1,2.5,2.5v12.2
			C738.5,500.6,737.3,501.7,736,501.7z"/>
		<path class="st4" d="M749.1,501.7c-1.4,0-2.5-1.1-2.5-2.5V487c0-1.4,1.1-2.5,2.5-2.5s2.5,1.1,2.5,2.5v12.2
			C751.6,500.6,750.5,501.7,749.1,501.7z"/>
		<path class="st4" d="M762.3,501.7c-1.4,0-2.5-1.1-2.5-2.5V487c0-1.4,1.1-2.5,2.5-2.5s2.5,1.1,2.5,2.5v12.2
			C764.8,500.6,763.6,501.7,762.3,501.7z"/>
		<path class="st4" d="M775.4,501.7c-1.4,0-2.5-1.1-2.5-2.5V487c0-1.4,1.1-2.5,2.5-2.5s2.5,1.1,2.5,2.5v12.2
			C777.9,500.6,776.8,501.7,775.4,501.7z"/>
		<path class="st4" d="M788.6,501.7c-1.4,0-2.5-1.1-2.5-2.5V487c0-1.4,1.1-2.5,2.5-2.5s2.5,1.1,2.5,2.5v12.2
			C791.1,500.6,789.9,501.7,788.6,501.7z"/>
		<path class="st4" d="M801.7,501.7c-1.4,0-2.5-1.1-2.5-2.5V487c0-1.4,1.1-2.5,2.5-2.5s2.5,1.1,2.5,2.5v12.2
			C804.2,500.6,803.1,501.7,801.7,501.7z"/>
		<path class="st4" d="M814.8,501.7c-1.4,0-2.5-1.1-2.5-2.5V487c0-1.4,1.1-2.5,2.5-2.5s2.5,1.1,2.5,2.5v12.2
			C817.3,500.6,816.2,501.7,814.8,501.7z"/>
		<path class="st4" d="M828,501.7c-1.4,0-2.5-1.1-2.5-2.5V487c0-1.4,1.1-2.5,2.5-2.5s2.5,1.1,2.5,2.5v12.2
			C830.5,500.6,829.4,501.7,828,501.7z"/>
	</g>
	<g>
		<g>
			<path class="st4" d="M855.1,542.8c-1,0-2-0.6-2.3-1.6l-15.3-39.6c-0.5-1.3,0.1-2.7,1.4-3.2c1.3-0.5,2.7,0.1,3.2,1.4l15.3,39.6
				c0.5,1.3-0.1,2.7-1.4,3.2C855.7,542.7,855.4,542.8,855.1,542.8z"/>
			<path class="st4" d="M855.1,542.8h-15.3c-1.4,0-2.5-1.1-2.5-2.5s1.1-2.5,2.5-2.5h15.3c1.4,0,2.5,1.1,2.5,2.5
				S856.5,542.8,855.1,542.8z"/>
			<path class="st4" d="M855.1,582c-1,0-2-0.6-2.3-1.6l-15.3-39.6c-0.5-1.3,0.1-2.7,1.4-3.2c1.3-0.5,2.7,0.1,3.2,1.4l15.3,39.6
				c0.5,1.3-0.1,2.7-1.4,3.2C855.7,581.9,855.4,582,855.1,582z"/>
			<path class="st4" d="M855.1,582h-15.3c-1.4,0-2.5-1.1-2.5-2.5s1.1-2.5,2.5-2.5h15.3c1.4,0,2.5,1.1,2.5,2.5S856.5,582,855.1,582z"
				/>
			<path class="st4" d="M855.1,621.2c-1,0-2-0.6-2.3-1.6L837.5,580c-0.5-1.3,0.1-2.7,1.4-3.2c1.3-0.5,2.7,0.1,3.2,1.4l15.3,39.6
				c0.5,1.3-0.1,2.7-1.4,3.2C855.7,621.1,855.4,621.2,855.1,621.2z"/>
			<path class="st4" d="M855.1,621.2h-15.3c-1.4,0-2.5-1.1-2.5-2.5s1.1-2.5,2.5-2.5h15.3c1.4,0,2.5,1.1,2.5,2.5
				S856.5,621.2,855.1,621.2z"/>
			<path class="st4" d="M855.1,660.4c-1,0-2-0.6-2.3-1.6l-15.3-39.6c-0.5-1.3,0.1-2.7,1.4-3.2c1.3-0.5,2.7,0.1,3.2,1.4l15.3,39.6
				c0.5,1.3-0.1,2.7-1.4,3.2C855.7,660.3,855.4,660.4,855.1,660.4z"/>
			<path class="st4" d="M855.1,660.4h-15.3c-1.4,0-2.5-1.1-2.5-2.5s1.1-2.5,2.5-2.5h15.3c1.4,0,2.5,1.1,2.5,2.5
				S856.5,660.4,855.1,660.4z"/>
			<path class="st4" d="M855.1,699.6c-1,0-2-0.6-2.3-1.6l-15.3-39.6c-0.5-1.3,0.1-2.7,1.4-3.2c1.3-0.5,2.7,0.1,3.2,1.4l15.3,39.6
				c0.5,1.3-0.1,2.7-1.4,3.2C855.7,699.5,855.4,699.6,855.1,699.6z"/>
			<path class="st4" d="M855.1,699.6h-15.3c-1.4,0-2.5-1.1-2.5-2.5s1.1-2.5,2.5-2.5h15.3c1.4,0,2.5,1.1,2.5,2.5
				S856.5,699.6,855.1,699.6z"/>
		</g>
		<path class="st4" d="M855.1,699.6h-15.3c-1.4,0-2.5-1.1-2.5-2.5V500.7c0-1.4,1.1-2.5,2.5-2.5h15.3c1.4,0,2.5,1.1,2.5,2.5v196.4
			C857.6,698.5,856.5,699.6,855.1,699.6z M842.3,694.6h10.3V503.2h-10.3V694.6z"/>
	</g>
	<path class="st4" d="M775.4,524.2c-1.4,0-2.5-1.1-2.5-2.5v-76.7c0-1.4,1.1-2.5,2.5-2.5s2.5,1.1,2.5,2.5v76.7
		C777.9,523,776.8,524.2,775.4,524.2z"/>
</g>
<g>
	<g>
		<g>
			<g>
				<rect x="1234.6" y="636.6" class="st2" width="63.8" height="91.9"/>
				<path class="st4" d="M1298.4,731h-63.8c-1.4,0-2.5-1.1-2.5-2.5v-91.9c0-1.4,1.1-2.5,2.5-2.5h63.8c1.4,0,2.5,1.1,2.5,2.5v91.9
					C1300.9,729.9,1299.8,731,1298.4,731z M1237.1,726h58.8v-86.9h-58.8V726z"/>
				<g>
					<rect x="1243.9" y="646.1" class="st4" width="9.6" height="9.6"/>
					<rect x="1261.7" y="646.1" class="st4" width="9.6" height="9.6"/>
					<rect x="1279.5" y="646.1" class="st4" width="9.6" height="9.6"/>
				</g>
			</g>
			<g>
				<rect x="1207.8" y="678" class="st2" width="99.8" height="91.9"/>
				<path class="st4" d="M1307.6,772.4h-99.8c-1.4,0-2.5-1.1-2.5-2.5V678c0-1.4,1.1-2.5,2.5-2.5h99.8c1.4,0,2.5,1.1,2.5,2.5v91.9
					C1310.1,771.3,1309,772.4,1307.6,772.4z M1210.3,767.4h94.8v-86.9h-94.8V767.4z"/>
				<g>
					<rect x="1217.2" y="687.5" class="st4" width="9.6" height="9.6"/>
					<rect x="1235.1" y="687.5" class="st4" width="9.6" height="9.6"/>
					<rect x="1252.9" y="687.5" class="st4" width="9.6" height="9.6"/>
					<rect x="1270.7" y="687.5" class="st4" width="9.6" height="9.6"/>
					<rect x="1288.6" y="687.5" class="st4" width="9.6" height="9.6"/>
				</g>
			</g>
			<rect x="1196.9" y="728.5" class="st2" width="121.5" height="41.4"/>
			<path class="st4" d="M1318.4,772.4h-121.5c-1.4,0-2.5-1.1-2.5-2.5v-41.4c0-1.4,1.1-2.5,2.5-2.5h121.5c1.4,0,2.5,1.1,2.5,2.5v41.4
				C1320.9,771.3,1319.8,772.4,1318.4,772.4z M1199.4,767.4h116.5V731h-116.5V767.4z"/>
			<g>
				<circle class="st4" cx="1216" cy="744.1" r="5.1"/>
				<circle class="st4" cx="1243.8" cy="744.1" r="5.1"/>
				<circle class="st4" cx="1271.6" cy="744.1" r="5.1"/>
				<circle class="st4" cx="1299.4" cy="744.1" r="5.1"/>
			</g>
			<path class="st4" d="M1298.4,639.1h-63.8c-1.4,0-2.5-1.1-2.5-2.5v-14.1c0-1.4,1.1-2.5,2.5-2.5h63.8c1.4,0,2.5,1.1,2.5,2.5v14.1
				C1300.9,637.9,1299.8,639.1,1298.4,639.1z M1237.1,634.1h58.8v-9.1h-58.8V634.1z"/>
			<g>
				<path class="st4" d="M1245.9,639.1c-1.4,0-2.5-1.1-2.5-2.5v-14.1c0-1.4,1.1-2.5,2.5-2.5s2.5,1.1,2.5,2.5v14.1
					C1248.4,637.9,1247.2,639.1,1245.9,639.1z"/>
				<path class="st4" d="M1259.6,639.1c-1.4,0-2.5-1.1-2.5-2.5v-14.1c0-1.4,1.1-2.5,2.5-2.5s2.5,1.1,2.5,2.5v14.1
					C1262.1,637.9,1261,639.1,1259.6,639.1z"/>
				<path class="st4" d="M1273.4,639.1c-1.4,0-2.5-1.1-2.5-2.5v-14.1c0-1.4,1.1-2.5,2.5-2.5s2.5,1.1,2.5,2.5v14.1
					C1275.9,637.9,1274.8,639.1,1273.4,639.1z"/>
				<path class="st4" d="M1287.1,639.1c-1.4,0-2.5-1.1-2.5-2.5v-14.1c0-1.4,1.1-2.5,2.5-2.5s2.5,1.1,2.5,2.5v14.1
					C1289.6,637.9,1288.5,639.1,1287.1,639.1z"/>
			</g>
		</g>
		<g>
			<rect x="946.7" y="750.3" class="st16" width="92.6" height="36.1"/>
			<path class="st4" d="M1039.3,788.9h-92.6c-1.4,0-2.5-1.1-2.5-2.5v-36.1c0-1.4,1.1-2.5,2.5-2.5h92.6c1.4,0,2.5,1.1,2.5,2.5v36.1
				C1041.8,787.8,1040.7,788.9,1039.3,788.9z M949.2,783.9h87.6v-31.1h-87.6V783.9z"/>
			<g>
				<path class="st4" d="M960.2,787.4c-0.6,0-1-0.4-1-1v-36.1c0-0.6,0.4-1,1-1s1,0.4,1,1v36.1C961.2,787,960.7,787.4,960.2,787.4z"
					/>
				<path class="st4" d="M973.3,787.4c-0.6,0-1-0.4-1-1v-36.1c0-0.6,0.4-1,1-1s1,0.4,1,1v36.1C974.3,787,973.9,787.4,973.3,787.4z"
					/>
				<path class="st4" d="M986.4,787.4c-0.6,0-1-0.4-1-1v-36.1c0-0.6,0.4-1,1-1s1,0.4,1,1v36.1C987.4,787,987,787.4,986.4,787.4z"/>
				<path class="st4" d="M999.6,787.4c-0.6,0-1-0.4-1-1v-36.1c0-0.6,0.4-1,1-1s1,0.4,1,1v36.1C1000.6,787,1000.1,787.4,999.6,787.4z
					"/>
				<path class="st4" d="M1012.7,787.4c-0.6,0-1-0.4-1-1v-36.1c0-0.6,0.4-1,1-1s1,0.4,1,1v36.1
					C1013.7,787,1013.2,787.4,1012.7,787.4z"/>
				<path class="st4" d="M1025.8,787.4c-0.6,0-1-0.4-1-1v-36.1c0-0.6,0.4-1,1-1s1,0.4,1,1v36.1
					C1026.8,787,1026.3,787.4,1025.8,787.4z"/>
			</g>
		</g>
		<g>
			<rect x="946.7" y="714.2" class="st17" width="92.6" height="36.1"/>
			<path class="st4" d="M1039.3,752.8h-92.6c-1.4,0-2.5-1.1-2.5-2.5v-36.1c0-1.4,1.1-2.5,2.5-2.5h92.6c1.4,0,2.5,1.1,2.5,2.5v36.1
				C1041.8,751.7,1040.7,752.8,1039.3,752.8z M949.2,747.8h87.6v-31.1h-87.6V747.8z"/>
			<g>
				<path class="st4" d="M960.2,751.3c-0.6,0-1-0.4-1-1v-36.1c0-0.6,0.4-1,1-1s1,0.4,1,1v36.1C961.2,750.9,960.7,751.3,960.2,751.3z
					"/>
				<path class="st4" d="M973.3,751.3c-0.6,0-1-0.4-1-1v-36.1c0-0.6,0.4-1,1-1s1,0.4,1,1v36.1C974.3,750.9,973.9,751.3,973.3,751.3z
					"/>
				<path class="st4" d="M986.4,751.3c-0.6,0-1-0.4-1-1v-36.1c0-0.6,0.4-1,1-1s1,0.4,1,1v36.1C987.4,750.9,987,751.3,986.4,751.3z"
					/>
				<path class="st4" d="M999.6,751.3c-0.6,0-1-0.4-1-1v-36.1c0-0.6,0.4-1,1-1s1,0.4,1,1v36.1
					C1000.6,750.9,1000.1,751.3,999.6,751.3z"/>
				<path class="st4" d="M1012.7,751.3c-0.6,0-1-0.4-1-1v-36.1c0-0.6,0.4-1,1-1s1,0.4,1,1v36.1
					C1013.7,750.9,1013.2,751.3,1012.7,751.3z"/>
				<path class="st4" d="M1025.8,751.3c-0.6,0-1-0.4-1-1v-36.1c0-0.6,0.4-1,1-1s1,0.4,1,1v36.1
					C1026.8,750.9,1026.3,751.3,1025.8,751.3z"/>
			</g>
		</g>
		<g>
			<path class="st4" d="M966.9,665c-0.9,0-1.7-0.5-2.2-1.3c-0.7-1.2-0.3-2.7,0.9-3.4l40.9-23.1c0.8-0.4,1.7-0.4,2.5,0l40.9,23.1
				c1.2,0.7,1.6,2.2,0.9,3.4c-0.7,1.2-2.2,1.6-3.4,0.9l-39.7-22.4l-39.7,22.4C967.7,664.9,967.3,665,966.9,665z"/>
			<g>
				<rect x="961.5" y="662.5" class="st18" width="92.6" height="36.1"/>
				<path class="st4" d="M1054.1,701.2h-92.6c-1.4,0-2.5-1.1-2.5-2.5v-36.1c0-1.4,1.1-2.5,2.5-2.5h92.6c1.4,0,2.5,1.1,2.5,2.5v36.1
					C1056.6,700,1055.5,701.2,1054.1,701.2z M964,696.2h87.6V665H964V696.2z"/>
				<g>
					<path class="st4" d="M975,699.7c-0.6,0-1-0.4-1-1v-36.1c0-0.6,0.4-1,1-1s1,0.4,1,1v36.1C976,699.2,975.5,699.7,975,699.7z"/>
					<path class="st4" d="M988.1,699.7c-0.6,0-1-0.4-1-1v-36.1c0-0.6,0.4-1,1-1s1,0.4,1,1v36.1C989.1,699.2,988.7,699.7,988.1,699.7
						z"/>
					<path class="st4" d="M1001.2,699.7c-0.6,0-1-0.4-1-1v-36.1c0-0.6,0.4-1,1-1s1,0.4,1,1v36.1
						C1002.2,699.2,1001.8,699.7,1001.2,699.7z"/>
					<path class="st4" d="M1014.4,699.7c-0.6,0-1-0.4-1-1v-36.1c0-0.6,0.4-1,1-1s1,0.4,1,1v36.1
						C1015.4,699.2,1014.9,699.7,1014.4,699.7z"/>
					<path class="st4" d="M1027.5,699.7c-0.6,0-1-0.4-1-1v-36.1c0-0.6,0.4-1,1-1s1,0.4,1,1v36.1
						C1028.5,699.2,1028,699.7,1027.5,699.7z"/>
					<path class="st4" d="M1040.6,699.7c-0.6,0-1-0.4-1-1v-36.1c0-0.6,0.4-1,1-1s1,0.4,1,1v36.1
						C1041.6,699.2,1041.1,699.7,1040.6,699.7z"/>
				</g>
			</g>
		</g>
		<g>
			<rect x="1039.3" y="750.3" class="st19" width="92.6" height="36.1"/>
			<path class="st4" d="M1131.8,788.9h-92.6c-1.4,0-2.5-1.1-2.5-2.5v-36.1c0-1.4,1.1-2.5,2.5-2.5h92.6c1.4,0,2.5,1.1,2.5,2.5v36.1
				C1134.3,787.8,1133.2,788.9,1131.8,788.9z M1041.8,783.9h87.6v-31.1h-87.6V783.9z"/>
			<g>
				<path class="st4" d="M1052.7,787.4c-0.6,0-1-0.4-1-1v-36.1c0-0.6,0.4-1,1-1s1,0.4,1,1v36.1
					C1053.7,787,1053.3,787.4,1052.7,787.4z"/>
				<path class="st4" d="M1065.9,787.4c-0.6,0-1-0.4-1-1v-36.1c0-0.6,0.4-1,1-1s1,0.4,1,1v36.1
					C1066.9,787,1066.4,787.4,1065.9,787.4z"/>
				<path class="st4" d="M1079,787.4c-0.6,0-1-0.4-1-1v-36.1c0-0.6,0.4-1,1-1s1,0.4,1,1v36.1C1080,787,1079.5,787.4,1079,787.4z"/>
				<path class="st4" d="M1092.1,787.4c-0.6,0-1-0.4-1-1v-36.1c0-0.6,0.4-1,1-1s1,0.4,1,1v36.1
					C1093.1,787,1092.7,787.4,1092.1,787.4z"/>
				<path class="st4" d="M1105.2,787.4c-0.6,0-1-0.4-1-1v-36.1c0-0.6,0.4-1,1-1s1,0.4,1,1v36.1
					C1106.2,787,1105.8,787.4,1105.2,787.4z"/>
				<path class="st4" d="M1118.4,787.4c-0.6,0-1-0.4-1-1v-36.1c0-0.6,0.4-1,1-1s1,0.4,1,1v36.1
					C1119.4,787,1118.9,787.4,1118.4,787.4z"/>
			</g>
		</g>
		<g>
			<rect x="854.1" y="750.3" class="st17" width="92.6" height="36.1"/>
			<path class="st4" d="M946.7,788.9h-92.6c-1.4,0-2.5-1.1-2.5-2.5v-36.1c0-1.4,1.1-2.5,2.5-2.5h92.6c1.4,0,2.5,1.1,2.5,2.5v36.1
				C949.2,787.8,948.1,788.9,946.7,788.9z M856.6,783.9h87.6v-31.1h-87.6V783.9z"/>
			<g>
				<path class="st4" d="M867.6,787.4c-0.6,0-1-0.4-1-1v-36.1c0-0.6,0.4-1,1-1s1,0.4,1,1v36.1C868.6,787,868.2,787.4,867.6,787.4z"
					/>
				<path class="st4" d="M880.7,787.4c-0.6,0-1-0.4-1-1v-36.1c0-0.6,0.4-1,1-1s1,0.4,1,1v36.1C881.7,787,881.3,787.4,880.7,787.4z"
					/>
				<path class="st4" d="M893.9,787.4c-0.6,0-1-0.4-1-1v-36.1c0-0.6,0.4-1,1-1s1,0.4,1,1v36.1C894.9,787,894.4,787.4,893.9,787.4z"
					/>
				<path class="st4" d="M907,787.4c-0.6,0-1-0.4-1-1v-36.1c0-0.6,0.4-1,1-1s1,0.4,1,1v36.1C908,787,907.5,787.4,907,787.4z"/>
				<path class="st4" d="M920.1,787.4c-0.6,0-1-0.4-1-1v-36.1c0-0.6,0.4-1,1-1s1,0.4,1,1v36.1C921.1,787,920.7,787.4,920.1,787.4z"
					/>
				<path class="st4" d="M933.2,787.4c-0.6,0-1-0.4-1-1v-36.1c0-0.6,0.4-1,1-1s1,0.4,1,1v36.1C934.2,787,933.8,787.4,933.2,787.4z"
					/>
			</g>
		</g>
		<g>
			<rect x="854.1" y="714.2" class="st19" width="92.6" height="36.1"/>
			<path class="st4" d="M946.7,752.8h-92.6c-1.4,0-2.5-1.1-2.5-2.5v-36.1c0-1.4,1.1-2.5,2.5-2.5h92.6c1.4,0,2.5,1.1,2.5,2.5v36.1
				C949.2,751.7,948.1,752.8,946.7,752.8z M856.6,747.8h87.6v-31.1h-87.6V747.8z"/>
			<g>
				<path class="st4" d="M867.6,751.3c-0.6,0-1-0.4-1-1v-36.1c0-0.6,0.4-1,1-1s1,0.4,1,1v36.1C868.6,750.9,868.2,751.3,867.6,751.3z
					"/>
				<path class="st4" d="M880.7,751.3c-0.6,0-1-0.4-1-1v-36.1c0-0.6,0.4-1,1-1s1,0.4,1,1v36.1C881.7,750.9,881.3,751.3,880.7,751.3z
					"/>
				<path class="st4" d="M893.9,751.3c-0.6,0-1-0.4-1-1v-36.1c0-0.6,0.4-1,1-1s1,0.4,1,1v36.1C894.9,750.9,894.4,751.3,893.9,751.3z
					"/>
				<path class="st4" d="M907,751.3c-0.6,0-1-0.4-1-1v-36.1c0-0.6,0.4-1,1-1s1,0.4,1,1v36.1C908,750.9,907.5,751.3,907,751.3z"/>
				<path class="st4" d="M920.1,751.3c-0.6,0-1-0.4-1-1v-36.1c0-0.6,0.4-1,1-1s1,0.4,1,1v36.1C921.1,750.9,920.7,751.3,920.1,751.3z
					"/>
				<path class="st4" d="M933.2,751.3c-0.6,0-1-0.4-1-1v-36.1c0-0.6,0.4-1,1-1s1,0.4,1,1v36.1C934.2,750.9,933.8,751.3,933.2,751.3z
					"/>
			</g>
		</g>
		<g>
			<path class="st20" d="M1346.4,759l-32.7,63.2l-7.3,14.1c-8,15.4-23.9,25.1-41.2,25.1H799.9c-13.1,0-23.3-10.7-23.3-23.2
				c0-1.6,0.2-3.2,0.5-4.8c0.8-3.7,0.6-7.6-0.4-11.2c-0.6-2-1.4-3.9-2.5-5.7l-40.6-66.2h160.2l11.6,19.6H1244l15-10.9H1346.4z"/>
			<path class="st4" d="M1265.1,863.9H799.9c-7.8,0-15.1-3.5-20-9.5s-6.8-13.9-5.2-21.5c1.1-5.2,0.1-10.6-2.6-15.1l-40.6-66.2
				c-0.5-0.8-0.5-1.7-0.1-2.5s1.3-1.3,2.2-1.3h160.2c0.9,0,1.7,0.5,2.2,1.2l10.8,18.4h336.4l14.4-10.5c0.4-0.3,0.9-0.5,1.5-0.5h87.3
				c0.9,0,1.7,0.5,2.1,1.2c0.5,0.7,0.5,1.7,0.1,2.4l-40,77.3C1300.1,853.8,1283.5,863.9,1265.1,863.9z M738.1,752.8l38.3,62.4
				c3.4,5.6,4.6,12.3,3.3,18.7c-1.3,6.1,0.3,12.5,4.2,17.3c4,4.9,9.8,7.7,16.1,7.7h465.2c16.5,0,31.4-9.1,39-23.7l38.1-73.7h-82.4
				l-14.4,10.5c-0.4,0.3-0.9,0.5-1.5,0.5H905.4c-0.9,0-1.7-0.5-2.2-1.2l-10.8-18.4H738.1z"/>
			<path class="st14" d="M1313.6,822.2l-7.3,14.1c-8,15.4-23.9,25.1-41.2,25.1H799.9c-13.1,0-23.3-10.7-23.3-23.2
				c0-1.6,0.2-3.2,0.5-4.8c0.8-3.7,0.6-7.6-0.4-11.2H1313.6z"/>
			<path class="st4" d="M1265.1,863.9H799.9c-14.2,0-25.8-11.5-25.8-25.7c0-1.8,0.2-3.6,0.5-5.3c0.7-3.3,0.6-6.8-0.4-10
				c-0.2-0.8-0.1-1.6,0.4-2.2c0.5-0.6,1.2-1,2-1H844c1.4,0,2.5,1.1,2.5,2.5s-1.1,2.5-2.5,2.5h-64.1c0.5,3.1,0.4,6.2-0.2,9.2
				c-0.3,1.4-0.4,2.8-0.4,4.3c0,11.4,9.3,20.7,20.8,20.7h465.2c16.5,0,31.4-9.1,39-23.7l5.4-10.5H877.4c-1.4,0-2.5-1.1-2.5-2.5
				s1.1-2.5,2.5-2.5h436.3c0.9,0,1.7,0.5,2.1,1.2c0.5,0.7,0.5,1.7,0.1,2.4l-7.3,14.1C1300.1,853.8,1283.5,863.9,1265.1,863.9z"/>
		</g>
		<g>
			<polygon class="st21" points="1150.5,707.9 1142.6,720.2 1142.6,770.3 1162.2,770.3 1162.2,707.9 			"/>
			<path class="st4" d="M1162.2,772.8h-19.6c-1.4,0-2.5-1.1-2.5-2.5v-50.1c0-0.5,0.1-1,0.4-1.4l7.9-12.3c0.5-0.7,1.3-1.1,2.1-1.1
				h11.7c1.4,0,2.5,1.1,2.5,2.5v62.3C1164.7,771.7,1163.6,772.8,1162.2,772.8z M1145.1,767.8h14.6v-57.3h-7.8l-6.8,10.5V767.8z"/>
			<rect x="1150.5" y="603.7" class="st21" width="11.7" height="104.3"/>
			<path class="st4" d="M1162.2,710.4h-11.7c-1.4,0-2.5-1.1-2.5-2.5V603.7c0-1.4,1.1-2.5,2.5-2.5h11.7c1.4,0,2.5,1.1,2.5,2.5v104.3
				C1164.7,709.3,1163.6,710.4,1162.2,710.4z M1153,705.4h6.7v-99.3h-6.7V705.4z"/>
			<polygon class="st21" points="1150.5,619.2 1018.9,619.2 1018.9,625.8 1127.8,633.8 1132.8,626.5 1150.5,626.5 			"/>
			<path class="st4" d="M1127.8,636.3c-0.1,0-0.1,0-0.2,0l-108.9-8c-1.3-0.1-2.3-1.2-2.3-2.5v-6.5c0-1.4,1.1-2.5,2.5-2.5h131.7
				c1.4,0,2.5,1.1,2.5,2.5v7.3c0,1.4-1.1,2.5-2.5,2.5h-16.4l-4.3,6.2C1129.3,635.9,1128.6,636.3,1127.8,636.3z M1021.4,623.5
				l105.2,7.7l4.3-6.1c0.5-0.7,1.2-1.1,2-1.1h15.2v-2.3h-126.7V623.5z"/>
			<circle class="st11" cx="1007.8" cy="633.4" r="6.4"/>
			<path class="st4" d="M1007.8,642.3c-4.9,0-8.9-4-8.9-8.9s4-8.9,8.9-8.9s8.9,4,8.9,8.9S1012.7,642.3,1007.8,642.3z M1007.8,629.5
				c-2.1,0-3.9,1.7-3.9,3.9s1.7,3.9,3.9,3.9s3.9-1.7,3.9-3.9S1009.9,629.5,1007.8,629.5z"/>
			<polygon class="st21" points="1018.9,619.2 1001.4,619.2 994,631.2 1018.9,631.2 			"/>
			<path class="st4" d="M1018.9,633.7H994c-0.9,0-1.7-0.5-2.2-1.3c-0.4-0.8-0.4-1.8,0.1-2.5l7.4-12c0.5-0.7,1.3-1.2,2.1-1.2h17.4
				c1.4,0,2.5,1.1,2.5,2.5v12C1021.4,632.6,1020.2,633.7,1018.9,633.7z M998.5,628.7h17.9v-7h-13.5L998.5,628.7z"/>
		</g>
	</g>
	<g>
		<path class="st12" d="M717.9,853.7c12.6-0.6,25.1-2.5,37.1-5.9c29,8.1,61.2,8.1,90.2,0c29,8.1,61.2,8.1,90.2,0
			c29,8.1,61.2,8.1,90.2,0c29,8.1,61.2,8.1,90.2,0c29,8.1,61.2,8.1,90.2,0c29,8.1,61.2,8.1,90.2,0c29,8.1,61.2,8.1,90.2,0v50.6
			H717.9V853.7z"/>
		<path class="st13" d="M1341.1,856.4c-3.9,0-7.9-0.1-11.8-0.4c-1.4-0.1-2.4-1.3-2.3-2.7s1.3-2.4,2.7-2.3
			c11.3,0.8,22.7,0.4,33.9-1.1c1.4-0.2,2.6,0.8,2.8,2.1c0.2,1.4-0.8,2.6-2.1,2.8C1356.5,855.9,1348.8,856.4,1341.1,856.4z"/>
		<path class="st13" d="M1250.9,856.4c-15.3,0-30.5-2-45.1-6c-4.2,1.1-8.5,2.1-12.8,3c-1.4,0.3-2.7-0.6-2.9-2
			c-0.3-1.4,0.6-2.7,2-2.9c4.4-0.8,8.8-1.9,13.1-3.1c0.4-0.1,0.9-0.1,1.3,0c28.6,8,60.2,8,88.8,0c0.4-0.1,0.9-0.1,1.3,0
			c5.3,1.5,10.8,2.7,16.3,3.6c1.4,0.2,2.3,1.5,2,2.9c-0.2,1.4-1.5,2.3-2.9,2c-5.5-0.9-10.9-2.1-16.2-3.6
			C1281.4,854.4,1266.2,856.4,1250.9,856.4z"/>
		<path class="st13" d="M1160.8,856.4c-15.4,0-30.7-2-45.1-6c-19.3,5.3-40.3,7.1-60.9,5.3c-1.4-0.1-2.4-1.3-2.3-2.7
			c0.1-1.4,1.3-2.4,2.7-2.3c20.2,1.8,40.8,0,59.8-5.3c0.4-0.1,0.9-0.1,1.3,0c19.8,5.5,41.5,7.3,62.6,5c1.4-0.1,2.6,0.8,2.8,2.2
			c0.1,1.4-0.8,2.6-2.2,2.8C1173.3,856.1,1167,856.4,1160.8,856.4z"/>
		<path class="st13" d="M980.4,856.4c-15.3,0-30.5-2-45.1-6c-19,5.2-39.8,7.1-60,5.3c-1.4-0.1-2.4-1.3-2.3-2.7
			c0.1-1.4,1.3-2.4,2.7-2.3c19.9,1.7,40.3-0.1,58.9-5.3c0.4-0.1,0.9-0.1,1.3,0c28.6,8,60.2,8,88.8,0c0.4-0.1,0.9-0.1,1.3,0
			c4.8,1.3,9.8,2.5,14.8,3.4c1.4,0.2,2.3,1.5,2,2.9c-0.2,1.4-1.5,2.3-2.9,2c-4.9-0.9-9.8-2-14.6-3.3
			C1011,854.4,995.7,856.4,980.4,856.4z"/>
		<path class="st13" d="M800.1,856.4c-15.3,0-30.5-2-45.1-6c-11.9,3.3-24.3,5.2-37,5.8c-1.4,0.1-2.5-1-2.6-2.4
			c-0.1-1.4,1-2.5,2.4-2.6c12.6-0.6,24.9-2.5,36.5-5.8c0.4-0.1,0.9-0.1,1.3,0c28.6,8,60.2,8,88.8,0c0.4-0.1,0.9-0.1,1.3,0
			c4.2,1.2,8.4,2.2,12.7,3c1.4,0.3,2.2,1.6,2,2.9c-0.3,1.4-1.6,2.2-2.9,2c-4.2-0.8-8.4-1.8-12.5-2.9
			C830.7,854.4,815.4,856.4,800.1,856.4z"/>
	</g>
</g>
<g>
	<g>
		<polygon class="st19" points="326.8,771.8 231.1,771.8 244.5,824.6 326.8,824.6 		"/>
		<path class="st4" d="M326.8,827.1h-82.3c-1.1,0-2.1-0.8-2.4-1.9l-13.3-52.8c-0.2-0.7,0-1.5,0.5-2.1c0.5-0.6,1.2-1,2-1h95.7
			c1.4,0,2.5,1.1,2.5,2.5v52.8C329.3,826,328.2,827.1,326.8,827.1z M246.4,822.1h77.9v-47.8h-90L246.4,822.1z"/>
		<rect x="226.5" y="824.6" class="st19" width="139" height="48.2"/>
		<path class="st4" d="M365.5,875.3h-139c-1.4,0-2.5-1.1-2.5-2.5v-48.2c0-1.4,1.1-2.5,2.5-2.5h139c1.4,0,2.5,1.1,2.5,2.5v48.2
			C368,874.2,366.8,875.3,365.5,875.3z M229,870.3h134v-43.2H229V870.3z"/>
		<g>
			<rect x="316.1" y="835.8" class="st4" width="12.3" height="22.8"/>
			<circle class="st4" cx="343.8" cy="840.8" r="5"/>
			<circle class="st4" cx="296" cy="840.8" r="5"/>
			<circle class="st4" cx="274" cy="840.8" r="5"/>
		</g>
		<path class="st22" d="M495.5,897.8H176.8L155,861.1l21.8-25.4c102.5,17.1,202.6,18.3,300.7,6.4l18,30.3V897.8z"/>
		<path class="st4" d="M495.5,900.3H176.8c-0.9,0-1.7-0.5-2.1-1.2l-21.8-36.6c-0.5-0.9-0.4-2.1,0.3-2.9l21.8-25.4
			c0.6-0.7,1.4-1,2.3-0.8c98.6,16.5,199.6,18.6,300,6.3c1-0.1,1.9,0.4,2.5,1.2l18,30.3c0.2,0.4,0.4,0.8,0.4,1.3v25.3
			C498,899.2,496.8,900.3,495.5,900.3z M178.2,895.3H493v-22.1l-16.8-28.3c-99.9,12.1-200.2,9.9-298.4-6.3L158,861.4L178.2,895.3z"
			/>
		<path class="st14" d="M486.2,856.8l-8.7-14.7c-98.1,12-198.1,10.8-300.7-6.4l-12.2,14.2C279.2,869.8,386.9,872.1,486.2,856.8z"/>
		<path class="st4" d="M351.7,869.3c-29.6,0-59.8-1.4-90.4-4.1c-1.4-0.1-2.4-1.3-2.3-2.7c0.1-1.4,1.3-2.4,2.7-2.3
			c77,6.8,151.1,5,220.4-5.3l-6-10.1c-99.9,12.1-200.2,9.9-298.4-6.3l-8.4,9.7c5.7,1,11.4,1.9,17,2.8c1.4,0.2,2.3,1.5,2.1,2.9
			c-0.2,1.4-1.5,2.3-2.9,2.1c-7.1-1.1-14.2-2.3-21.4-3.5c-0.9-0.2-1.6-0.8-1.9-1.6c-0.3-0.8-0.1-1.8,0.5-2.5l12.2-14.2
			c0.6-0.7,1.4-1,2.3-0.8c98.6,16.5,199.6,18.6,300,6.3c1-0.1,1.9,0.4,2.5,1.2l8.7,14.7c0.4,0.7,0.5,1.6,0.1,2.3
			c-0.4,0.8-1.1,1.3-1.9,1.4C443.3,865.9,398.2,869.3,351.7,869.3z"/>
		<path class="st4" d="M250.3,864.2c-0.1,0-0.2,0-0.2,0c-9.2-0.9-18.6-2-27.9-3.1c-1.4-0.2-2.3-1.4-2.2-2.8c0.2-1.4,1.4-2.3,2.8-2.2
			c9.2,1.1,18.6,2.2,27.7,3.1c1.4,0.1,2.4,1.4,2.2,2.7C252.7,863.2,251.6,864.2,250.3,864.2z"/>
		<path class="st4" d="M348,881.3c-56.1,0-117-2.9-166.3-12.1c-1.4-0.3-2.3-1.6-2-2.9c0.3-1.4,1.6-2.3,2.9-2
			C287,883.7,443.6,875,495.2,870c1.4-0.1,2.6,0.9,2.7,2.2c0.1,1.4-0.9,2.6-2.2,2.7C468.3,877.6,411.2,881.3,348,881.3z"/>
		<path class="st4" d="M365.5,827.1h-139c-1.4,0-2.5-1.1-2.5-2.5v-12.2c0-1.4,1.1-2.5,2.5-2.5h139c1.4,0,2.5,1.1,2.5,2.5v12.2
			C368,826,366.8,827.1,365.5,827.1z M229,822.1h134V815H229V822.1z"/>
		<g>
			<path class="st4" d="M240.3,827.1c-1.4,0-2.5-1.1-2.5-2.5v-12.2c0-1.4,1.1-2.5,2.5-2.5s2.5,1.1,2.5,2.5v12.2
				C242.8,826,241.7,827.1,240.3,827.1z"/>
			<path class="st4" d="M256.2,827.1c-1.4,0-2.5-1.1-2.5-2.5v-12.2c0-1.4,1.1-2.5,2.5-2.5s2.5,1.1,2.5,2.5v12.2
				C258.7,826,257.6,827.1,256.2,827.1z"/>
			<path class="st4" d="M272.1,827.1c-1.4,0-2.5-1.1-2.5-2.5v-12.2c0-1.4,1.1-2.5,2.5-2.5s2.5,1.1,2.5,2.5v12.2
				C274.6,826,273.5,827.1,272.1,827.1z"/>
			<path class="st4" d="M288,827.1c-1.4,0-2.5-1.1-2.5-2.5v-12.2c0-1.4,1.1-2.5,2.5-2.5s2.5,1.1,2.5,2.5v12.2
				C290.5,826,289.4,827.1,288,827.1z"/>
			<path class="st4" d="M303.9,827.1c-1.4,0-2.5-1.1-2.5-2.5v-12.2c0-1.4,1.1-2.5,2.5-2.5s2.5,1.1,2.5,2.5v12.2
				C306.4,826,305.3,827.1,303.9,827.1z"/>
			<path class="st4" d="M319.8,827.1c-1.4,0-2.5-1.1-2.5-2.5v-12.2c0-1.4,1.1-2.5,2.5-2.5s2.5,1.1,2.5,2.5v12.2
				C322.3,826,321.2,827.1,319.8,827.1z"/>
			<path class="st4" d="M335.7,827.1c-1.4,0-2.5-1.1-2.5-2.5v-12.2c0-1.4,1.1-2.5,2.5-2.5s2.5,1.1,2.5,2.5v12.2
				C338.2,826,337.1,827.1,335.7,827.1z"/>
			<path class="st4" d="M351.6,827.1c-1.4,0-2.5-1.1-2.5-2.5v-12.2c0-1.4,1.1-2.5,2.5-2.5s2.5,1.1,2.5,2.5v12.2
				C354.1,826,353,827.1,351.6,827.1z"/>
		</g>
		<polygon class="st20" points="231.1,771.8 243.5,752.8 265.3,756.8 265.3,765.1 321.7,765.1 326.8,771.8 		"/>
		<path class="st4" d="M326.8,774.3h-95.7c-0.9,0-1.8-0.5-2.2-1.3c-0.4-0.8-0.4-1.8,0.1-2.6l12.3-19c0.5-0.8,1.6-1.3,2.5-1.1l21.8,4
			c1.2,0.2,2,1.3,2,2.5v5.8h53.9c0.8,0,1.5,0.4,2,1l5.1,6.7c0.6,0.8,0.7,1.8,0.3,2.6S327.7,774.3,326.8,774.3z M235.7,769.3h86
			l-1.3-1.7h-55.2c-1.4,0-2.5-1.1-2.5-2.5v-6.3l-18.1-3.3L235.7,769.3z"/>
		<polygon class="st22" points="284.3,786.5 284.3,801.5 238.6,801.5 234.8,786.5 		"/>
		<rect x="293.1" y="786.5" class="st22" width="15" height="15"/>
		<path class="st4" d="M284.3,804h-45.7c-1.1,0-2.1-0.8-2.4-1.9l-3.8-15c-0.2-0.7,0-1.5,0.5-2.1c0.5-0.6,1.2-1,2-1h49.5
			c1.4,0,2.5,1.1,2.5,2.5v15C286.8,802.8,285.7,804,284.3,804z M240.6,799h41.3v-10H238L240.6,799z"/>
		<path class="st4" d="M308.1,804h-15c-1.4,0-2.5-1.1-2.5-2.5v-15c0-1.4,1.1-2.5,2.5-2.5h15c1.4,0,2.5,1.1,2.5,2.5v15
			C310.6,802.8,309.5,804,308.1,804z M295.6,799h10v-10h-10V799z"/>
		<path class="st4" d="M301,767.6c-1.4,0-2.5-1.1-2.5-2.5v-77.3c0-1.4,1.1-2.5,2.5-2.5s2.5,1.1,2.5,2.5v77.3
			C303.5,766.5,302.3,767.6,301,767.6z"/>
		<path class="st4" d="M301,751h-14.5c-1.4,0-2.5-1.1-2.5-2.5s1.1-2.5,2.5-2.5H301c1.4,0,2.5,1.1,2.5,2.5S302.3,751,301,751z"/>
	</g>
	<path class="st12" d="M134.7,893.6c11.3,0,22.6-1.9,33.4-5.6c21.4,7.4,45.3,7.4,66.7,0c21.4,7.4,45.3,7.4,66.7,0
		c21.4,7.4,45.3,7.4,66.7,0c21.4,7.4,45.3,7.4,66.7,0c21.4,7.4,45.3,7.4,66.7,0c10.7,3.7,22,5.6,33.4,5.6v21.1H134.7V893.6z"/>
	<path class="st13" d="M535,896.1c-11.5,0-22.7-1.8-33.4-5.4c-4.9,1.6-9.9,2.9-15,3.8c-1.4,0.2-2.7-0.7-2.9-2s0.7-2.7,2-2.9
		c5.1-0.9,10.2-2.2,15.1-3.9c0.5-0.2,1.1-0.2,1.6,0c10.4,3.6,21.3,5.4,32.5,5.4c1.4,0,2.5,1.1,2.5,2.5S536.3,896.1,535,896.1z"/>
	<path class="st13" d="M468.2,896.1c-11.4,0-22.6-1.8-33.3-5.4c-2.5,0.8-5.1,1.6-7.6,2.2c-1.3,0.3-2.7-0.5-3-1.8
		c-0.3-1.3,0.5-2.7,1.8-3c2.7-0.7,5.4-1.5,8-2.4c0.5-0.2,1.1-0.2,1.6,0c11.5,4,23.6,5.8,35.9,5.4c1.4-0.1,2.5,1,2.6,2.4
		s-1,2.5-2.4,2.6C470.6,896.1,469.4,896.1,468.2,896.1z"/>
	<path class="st13" d="M334.8,896.1c-11.3,0-22.6-1.8-33.4-5.4c-21.5,7.3-45.2,7.3-66.7,0c-13.1,4.4-27.3,6.2-41.3,5.1
		c-1.4-0.1-2.4-1.3-2.3-2.7c0.1-1.4,1.3-2.4,2.7-2.3c13.6,1,27.4-0.8,40.1-5.1c0.5-0.2,1.1-0.2,1.6,0c21,7.3,44.1,7.3,65.1,0
		c0.5-0.2,1.1-0.2,1.6,0c21,7.3,44.1,7.3,65.1,0c0.5-0.2,1.1-0.2,1.6,0c12.8,4.4,26.8,6.2,40.5,5.1c1.4-0.1,2.6,0.9,2.7,2.3
		c0.1,1.4-0.9,2.6-2.3,2.7c-14.1,1.1-28.5-0.6-41.7-5.1C357.4,894.3,346.1,896.1,334.8,896.1z"/>
	<path class="st13" d="M134.7,896.1c-1.4,0-2.5-1.1-2.5-2.5s1.1-2.5,2.5-2.5c11.2,0,22.1-1.8,32.5-5.4c0.5-0.2,1.1-0.2,1.6,0
		c4.4,1.5,9,2.8,13.7,3.7c1.4,0.3,2.2,1.6,2,2.9c-0.3,1.4-1.6,2.2-2.9,2c-4.6-0.9-9.2-2.1-13.6-3.6
		C157.4,894.3,146.2,896.1,134.7,896.1z"/>
</g>
<g>
	<g>
		<rect x="432.4" y="674.4" class="st17" width="58.2" height="22.7"/>
		<path class="st4" d="M490.6,699.6h-58.2c-1.4,0-2.5-1.1-2.5-2.5v-22.7c0-1.4,1.1-2.5,2.5-2.5h58.2c1.4,0,2.5,1.1,2.5,2.5v22.7
			C493.1,698.5,492,699.6,490.6,699.6z M434.9,694.6h53.2v-17.7h-53.2V694.6z"/>
		<g>
			<path class="st4" d="M440.9,698.1c-0.6,0-1-0.4-1-1v-22.7c0-0.6,0.4-1,1-1s1,0.4,1,1v22.7C441.9,697.6,441.4,698.1,440.9,698.1z"
				/>
			<path class="st4" d="M449.1,698.1c-0.6,0-1-0.4-1-1v-22.7c0-0.6,0.4-1,1-1s1,0.4,1,1v22.7C450.1,697.6,449.7,698.1,449.1,698.1z"
				/>
			<path class="st4" d="M457.4,698.1c-0.6,0-1-0.4-1-1v-22.7c0-0.6,0.4-1,1-1s1,0.4,1,1v22.7C458.4,697.6,457.9,698.1,457.4,698.1z"
				/>
			<path class="st4" d="M465.6,698.1c-0.6,0-1-0.4-1-1v-22.7c0-0.6,0.4-1,1-1s1,0.4,1,1v22.7C466.6,697.6,466.2,698.1,465.6,698.1z"
				/>
			<path class="st4" d="M473.9,698.1c-0.6,0-1-0.4-1-1v-22.7c0-0.6,0.4-1,1-1s1,0.4,1,1v22.7C474.9,697.6,474.4,698.1,473.9,698.1z"
				/>
			<path class="st4" d="M482.2,698.1c-0.6,0-1-0.4-1-1v-22.7c0-0.6,0.4-1,1-1s1,0.4,1,1v22.7C483.2,697.6,482.7,698.1,482.2,698.1z"
				/>
		</g>
	</g>
	<g>
		<rect x="490.6" y="674.4" class="st18" width="58.2" height="22.7"/>
		<path class="st4" d="M548.9,699.6h-58.2c-1.4,0-2.5-1.1-2.5-2.5v-22.7c0-1.4,1.1-2.5,2.5-2.5h58.2c1.4,0,2.5,1.1,2.5,2.5v22.7
			C551.4,698.5,550.2,699.6,548.9,699.6z M493.1,694.6h53.2v-17.7h-53.2V694.6z"/>
		<g>
			<path class="st4" d="M499.1,698.1c-0.6,0-1-0.4-1-1v-22.7c0-0.6,0.4-1,1-1s1,0.4,1,1v22.7C500.1,697.6,499.7,698.1,499.1,698.1z"
				/>
			<path class="st4" d="M507.4,698.1c-0.6,0-1-0.4-1-1v-22.7c0-0.6,0.4-1,1-1s1,0.4,1,1v22.7C508.4,697.6,507.9,698.1,507.4,698.1z"
				/>
			<path class="st4" d="M515.6,698.1c-0.6,0-1-0.4-1-1v-22.7c0-0.6,0.4-1,1-1s1,0.4,1,1v22.7C516.6,697.6,516.2,698.1,515.6,698.1z"
				/>
			<path class="st4" d="M523.9,698.1c-0.6,0-1-0.4-1-1v-22.7c0-0.6,0.4-1,1-1s1,0.4,1,1v22.7C524.9,697.6,524.4,698.1,523.9,698.1z"
				/>
			<path class="st4" d="M532.1,698.1c-0.6,0-1-0.4-1-1v-22.7c0-0.6,0.4-1,1-1s1,0.4,1,1v22.7C533.1,697.6,532.7,698.1,532.1,698.1z"
				/>
			<path class="st4" d="M540.4,698.1c-0.6,0-1-0.4-1-1v-22.7c0-0.6,0.4-1,1-1s1,0.4,1,1v22.7C541.4,697.6,540.9,698.1,540.4,698.1z"
				/>
		</g>
	</g>
	<g>
		<rect x="548.9" y="674.4" class="st16" width="58.2" height="22.7"/>
		<path class="st4" d="M607.1,699.6h-58.2c-1.4,0-2.5-1.1-2.5-2.5v-22.7c0-1.4,1.1-2.5,2.5-2.5h58.2c1.4,0,2.5,1.1,2.5,2.5v22.7
			C609.6,698.5,608.5,699.6,607.1,699.6z M551.4,694.6h53.2v-17.7h-53.2V694.6z"/>
		<g>
			<path class="st4" d="M557.3,698.1c-0.6,0-1-0.4-1-1v-22.7c0-0.6,0.4-1,1-1s1,0.4,1,1v22.7C558.3,697.6,557.9,698.1,557.3,698.1z"
				/>
			<path class="st4" d="M565.6,698.1c-0.6,0-1-0.4-1-1v-22.7c0-0.6,0.4-1,1-1s1,0.4,1,1v22.7C566.6,697.6,566.1,698.1,565.6,698.1z"
				/>
			<path class="st4" d="M573.9,698.1c-0.6,0-1-0.4-1-1v-22.7c0-0.6,0.4-1,1-1s1,0.4,1,1v22.7C574.9,697.6,574.4,698.1,573.9,698.1z"
				/>
			<path class="st4" d="M582.1,698.1c-0.6,0-1-0.4-1-1v-22.7c0-0.6,0.4-1,1-1s1,0.4,1,1v22.7C583.1,697.6,582.7,698.1,582.1,698.1z"
				/>
			<path class="st4" d="M590.4,698.1c-0.6,0-1-0.4-1-1v-22.7c0-0.6,0.4-1,1-1s1,0.4,1,1v22.7C591.4,697.6,590.9,698.1,590.4,698.1z"
				/>
			<path class="st4" d="M598.6,698.1c-0.6,0-1-0.4-1-1v-22.7c0-0.6,0.4-1,1-1s1,0.4,1,1v22.7C599.6,697.6,599.2,698.1,598.6,698.1z"
				/>
		</g>
	</g>
	<g>
		<rect x="548.9" y="651.6" class="st17" width="58.2" height="22.7"/>
		<path class="st4" d="M607.1,676.9h-58.2c-1.4,0-2.5-1.1-2.5-2.5v-22.7c0-1.4,1.1-2.5,2.5-2.5h58.2c1.4,0,2.5,1.1,2.5,2.5v22.7
			C609.6,675.7,608.5,676.9,607.1,676.9z M551.4,671.9h53.2v-17.7h-53.2V671.9z"/>
		<g>
			<path class="st4" d="M557.3,675.4c-0.6,0-1-0.4-1-1v-22.7c0-0.6,0.4-1,1-1s1,0.4,1,1v22.7C558.3,674.9,557.9,675.4,557.3,675.4z"
				/>
			<path class="st4" d="M565.6,675.4c-0.6,0-1-0.4-1-1v-22.7c0-0.6,0.4-1,1-1s1,0.4,1,1v22.7C566.6,674.9,566.1,675.4,565.6,675.4z"
				/>
			<path class="st4" d="M573.9,675.4c-0.6,0-1-0.4-1-1v-22.7c0-0.6,0.4-1,1-1s1,0.4,1,1v22.7C574.9,674.9,574.4,675.4,573.9,675.4z"
				/>
			<path class="st4" d="M582.1,675.4c-0.6,0-1-0.4-1-1v-22.7c0-0.6,0.4-1,1-1s1,0.4,1,1v22.7C583.1,674.9,582.7,675.4,582.1,675.4z"
				/>
			<path class="st4" d="M590.4,675.4c-0.6,0-1-0.4-1-1v-22.7c0-0.6,0.4-1,1-1s1,0.4,1,1v22.7C591.4,674.9,590.9,675.4,590.4,675.4z"
				/>
			<path class="st4" d="M598.6,675.4c-0.6,0-1-0.4-1-1v-22.7c0-0.6,0.4-1,1-1s1,0.4,1,1v22.7C599.6,674.9,599.2,675.4,598.6,675.4z"
				/>
		</g>
	</g>
	<g>
		<rect x="490.9" y="651.6" class="st19" width="58.2" height="22.7"/>
		<path class="st4" d="M549.2,676.9h-58.2c-1.4,0-2.5-1.1-2.5-2.5v-22.7c0-1.4,1.1-2.5,2.5-2.5h58.2c1.4,0,2.5,1.1,2.5,2.5v22.7
			C551.7,675.7,550.5,676.9,549.2,676.9z M493.4,671.9h53.2v-17.7h-53.2V671.9z"/>
		<g>
			<path class="st4" d="M499.4,675.4c-0.6,0-1-0.4-1-1v-22.7c0-0.6,0.4-1,1-1s1,0.4,1,1v22.7C500.4,674.9,500,675.4,499.4,675.4z"/>
			<path class="st4" d="M507.7,675.4c-0.6,0-1-0.4-1-1v-22.7c0-0.6,0.4-1,1-1s1,0.4,1,1v22.7C508.7,674.9,508.2,675.4,507.7,675.4z"
				/>
			<path class="st4" d="M515.9,675.4c-0.6,0-1-0.4-1-1v-22.7c0-0.6,0.4-1,1-1s1,0.4,1,1v22.7C516.9,674.9,516.5,675.4,515.9,675.4z"
				/>
			<path class="st4" d="M524.2,675.4c-0.6,0-1-0.4-1-1v-22.7c0-0.6,0.4-1,1-1s1,0.4,1,1v22.7C525.2,674.9,524.7,675.4,524.2,675.4z"
				/>
			<path class="st4" d="M532.4,675.4c-0.6,0-1-0.4-1-1v-22.7c0-0.6,0.4-1,1-1s1,0.4,1,1v22.7C533.4,674.9,533,675.4,532.4,675.4z"/>
			<path class="st4" d="M540.7,675.4c-0.6,0-1-0.4-1-1v-22.7c0-0.6,0.4-1,1-1s1,0.4,1,1v22.7C541.7,674.9,541.2,675.4,540.7,675.4z"
				/>
		</g>
	</g>
	<g>
		<rect x="607.1" y="674.4" class="st18" width="58.2" height="22.7"/>
		<path class="st4" d="M665.3,699.6h-58.2c-1.4,0-2.5-1.1-2.5-2.5v-22.7c0-1.4,1.1-2.5,2.5-2.5h58.2c1.4,0,2.5,1.1,2.5,2.5v22.7
			C667.8,698.5,666.7,699.6,665.3,699.6z M609.6,694.6h53.2v-17.7h-53.2V694.6z"/>
		<g>
			<path class="st4" d="M615.6,698.1c-0.6,0-1-0.4-1-1v-22.7c0-0.6,0.4-1,1-1s1,0.4,1,1v22.7C616.6,697.6,616.1,698.1,615.6,698.1z"
				/>
			<path class="st4" d="M623.8,698.1c-0.6,0-1-0.4-1-1v-22.7c0-0.6,0.4-1,1-1s1,0.4,1,1v22.7C624.8,697.6,624.4,698.1,623.8,698.1z"
				/>
			<path class="st4" d="M632.1,698.1c-0.6,0-1-0.4-1-1v-22.7c0-0.6,0.4-1,1-1s1,0.4,1,1v22.7C633.1,697.6,632.6,698.1,632.1,698.1z"
				/>
			<path class="st4" d="M640.3,698.1c-0.6,0-1-0.4-1-1v-22.7c0-0.6,0.4-1,1-1s1,0.4,1,1v22.7C641.3,697.6,640.9,698.1,640.3,698.1z"
				/>
			<path class="st4" d="M648.6,698.1c-0.6,0-1-0.4-1-1v-22.7c0-0.6,0.4-1,1-1s1,0.4,1,1v22.7C649.6,697.6,649.1,698.1,648.6,698.1z"
				/>
			<path class="st4" d="M656.8,698.1c-0.6,0-1-0.4-1-1v-22.7c0-0.6,0.4-1,1-1s1,0.4,1,1v22.7C657.8,697.6,657.4,698.1,656.8,698.1z"
				/>
		</g>
	</g>
</g>
</svg>
